<svg width="44" height="44" viewBox="0 0 44 44" fill="none" xmlns="http://www.w3.org/2000/svg">
<rect width="44" height="44" rx="8" fill="#04645D"/>
<path d="M14.875 29.125C14.725 28.975 14.65 28.8 14.65 28.6C14.65 28.4 14.725 28.225 14.875 28.075L26.2 16.75H20C19.7833 16.75 19.6043 16.679 19.463 16.537C19.321 16.3957 19.25 16.2167 19.25 16C19.25 15.7833 19.321 15.6043 19.463 15.463C19.6043 15.321 19.7833 15.25 20 15.25H27.85C28.1 15.25 28.3127 15.3373 28.488 15.512C28.6627 15.6873 28.75 15.9 28.75 16.15V24C28.75 24.2167 28.6793 24.3957 28.538 24.537C28.396 24.679 28.2167 24.75 28 24.75C27.7833 24.75 27.604 24.679 27.462 24.537C27.3207 24.3957 27.25 24.2167 27.25 24V17.8L15.925 29.125C15.775 29.275 15.6 29.35 15.4 29.35C15.2 29.35 15.025 29.275 14.875 29.125Z" fill="white"/>
</svg>
