<svg width="173" height="137" viewBox="0 0 173 137" fill="none" xmlns="http://www.w3.org/2000/svg">
<path d="M2.28058 86.3043C11.8526 89.4542 49.6895 95.1549 58.3122 79.5489C69.0906 60.0416 40.9305 48.4486 31.8986 67.8371C22.8667 87.2256 62.7009 103.805 81.5088 100.047C112.889 93.7773 148.2 68.473 152.805 56.2285" stroke="#171B26" stroke-width="1.5" stroke-dasharray="7 7"/>
<path d="M163.822 47.5531C163.519 47.7315 163.164 47.8036 162.815 47.7577L158.857 47.2503L158.217 50.3352C158.189 50.4709 158.125 50.5967 158.032 50.6997C157.939 50.8027 157.821 50.8792 157.689 50.9215C157.557 50.9637 157.416 50.9702 157.281 50.9402C157.146 50.9102 157.021 50.8449 156.919 50.7508L152.904 47.0439L149.957 47.6317C149.639 47.695 149.309 47.66 149.011 47.5313C148.714 47.4026 148.462 47.1864 148.29 46.9113C148.118 46.6362 148.034 46.3153 148.049 45.9912C148.063 45.6671 148.176 45.3551 148.373 45.0968L157.594 33.1029C157.769 32.8734 158.004 32.6958 158.272 32.5889C158.541 32.482 158.833 32.4499 159.118 32.496C159.404 32.542 159.671 32.6645 159.892 32.8504C160.113 33.0362 160.28 33.2786 160.375 33.5517L164.529 45.6545C164.647 46.004 164.641 46.3835 164.512 46.7291C164.384 47.0748 164.14 47.3657 163.822 47.5531Z" fill="#04645D"/>
<path d="M157.847 50.8507C157.703 50.9359 157.534 50.9722 157.367 50.9543C157.2 50.9365 157.043 50.8653 156.92 50.7514L152.616 46.7807C152.482 46.6571 152.395 46.4904 152.37 46.3095C152.346 46.1286 152.386 45.9449 152.483 45.7902L157.43 37.8838C157.529 37.7251 157.682 37.6072 157.861 37.5514C158.039 37.4956 158.232 37.5055 158.404 37.5794C158.575 37.6534 158.715 37.7864 158.797 37.9544C158.879 38.1225 158.899 38.3144 158.852 38.4954L156.883 46.0859L158.191 49.9229C158.248 50.0877 158.247 50.2666 158.191 50.4312C158.134 50.5958 158.024 50.7368 157.878 50.8318C157.868 50.8387 157.857 50.8449 157.847 50.8507Z" fill="#04645D"/>
</svg>
