<svg width="42" height="49" viewBox="0 0 42 49" fill="none" xmlns="http://www.w3.org/2000/svg">
<g clip-path="url(#clip0_6_54)">
<path d="M35.2273 35.6791C34.6818 36.4498 34.3182 37.1298 33.7727 37.6285C32 39.0792 32.3182 41.9807 29.6818 43.0688C28.0909 43.7035 27 45.6076 25.6818 46.9676C25.5909 47.0583 25.5455 47.1943 25.4545 47.285C24.4091 48.373 19 48.509 17.6818 47.7837C16.1364 46.9223 14.3636 46.4689 12.6818 45.8342C12.5454 45.7889 12.3636 45.8796 12.3182 45.8342C11.1364 44.7915 10.0909 43.6128 8.81818 42.7061C7.22727 41.618 6.90909 40.7567 7.77272 38.5352C8.36363 36.9938 7.95454 36.0871 6.45454 35.2711C4.45454 36.9485 2.68181 37.0391 0.727267 35.2711C0.181813 34.7724 -0.136369 33.4576 0.136358 32.7776C1.72727 28.7881 3.54545 24.8892 5.27272 20.9904C5.90909 19.585 6.90909 19.313 8.31818 19.857C11.4091 20.9904 11.7727 21.5344 11.0909 24.6172C12.5 24.7079 13.8636 24.7986 15.2273 24.8439C16.8182 24.9346 18.4091 24.9799 20.0454 24.9799C20.5 24.9799 21 25.0706 21.3636 24.9346C23.4091 23.9372 25.3636 24.3452 27.4091 25.0252C28.5 25.3879 29.7727 25.3426 31.0909 25.4786C30.8636 22.1238 32.0909 20.5823 34.9545 20.4917C35.6818 20.4917 36.8182 21.2624 37.1364 21.9424C38.8182 25.8866 40.2727 29.9215 41.8636 33.911C42.3636 35.1804 41.9091 36.0418 40.7727 36.6765C38.0909 37.9459 37 37.8552 35.2273 35.6791ZM9.63636 35.5884C11.1818 35.0444 12.7273 35.1351 13.6364 37.1298C13.7273 37.3112 14.0454 37.3565 14.2727 37.4925C15.7727 38.2179 17.3636 38.8979 18.8182 39.7139C21.0909 40.938 23.3182 42.3434 25.6364 43.5221C26.0909 43.7488 26.8636 43.3861 27.5 43.2955C27.2273 42.7968 27.0909 42.0714 26.6818 41.754C25.5455 40.9833 24.2727 40.4393 23.1364 39.6686C22.6818 39.3513 22.4545 38.7619 22.0909 38.2632C22.7273 38.3085 23.4091 38.1272 23.9545 38.3992C25.5455 39.1699 27 40.1673 28.5909 40.8927C29.0455 41.1193 29.7273 40.802 30.2727 40.7113C30.0454 40.1673 30 39.4419 29.5909 39.1246C28.5454 38.3539 27.3182 37.8552 26.2273 37.1298C25.7727 36.8125 25.5909 36.1778 25.2727 35.7244C25.8636 35.7698 26.5455 35.6337 27.0455 35.8604C28.2727 36.4044 29.4091 37.2205 30.6818 37.7645C31.0454 37.9005 31.6818 37.4925 32.1818 37.3112C32 36.8578 31.9545 36.2684 31.6818 35.9964C31.1818 35.5431 30.4091 35.3164 29.8636 34.9084C26.6364 32.5509 23.3636 31.4175 19.4545 33.5483C17.7727 34.5004 15.9091 34.0017 14.3636 32.6416C13.2727 31.6442 13.0909 30.8282 14.5455 29.8761C16.1364 28.8334 17.5455 27.6094 19.0455 26.4306C18.9545 26.2946 18.8636 26.1586 18.8182 26.0226C16.0455 26.0226 13.2727 26.0226 10.1364 26.0226C9.18181 28.1534 8.04545 30.7375 6.95454 33.1856C7.81818 34.0923 8.68181 34.7724 9.63636 35.5884ZM15.2273 31.6442C16.0909 31.9162 16.8182 32.4149 17.5 32.3696C18.5909 32.2789 19.7273 32.0069 20.6818 31.5535C23.2727 30.3295 25.6364 30.4202 28.0455 32.0976C29.3182 33.0043 30.8182 33.5936 32.0909 34.455C33.2273 35.2257 34.0454 35.1351 35 34.183C33.9545 31.5082 32.9091 28.8787 31.8182 26.1586C29.9091 27.428 28.2273 27.0653 26.5455 26.2946C24.5455 25.3879 22.5909 25.4786 20.8636 26.884C19.0455 28.3801 17.2727 29.9215 15.2273 31.6442ZM32.2727 22.9398C34 27.428 35.6818 31.7349 37.4091 36.1324C38.5909 35.6791 39.5 35.3164 40.5454 34.9084C38.8182 30.4202 37.1364 26.1133 35.4091 21.7157C34.2273 22.1691 33.3636 22.5318 32.2727 22.9398ZM6.95454 20.8997C4.99999 25.2972 3.13636 29.5134 1.22727 33.8657C2.36363 34.3643 3.27272 34.727 4.31818 35.1804C6.27272 30.7828 8.13636 26.612 10.0455 22.2598C8.95454 21.7611 7.99999 21.353 6.95454 20.8997ZM12.1364 44.2475C12.6364 44.1115 12.9545 44.1115 13 44.0208C13.7273 42.6608 14.4545 41.346 15.0454 39.9406C15.0909 39.8046 14.6364 39.2606 14.3636 39.1699C14.0909 39.0792 13.5 39.2153 13.3636 39.4419C12.6818 40.53 12 41.6634 11.5 42.8421C11.4091 43.2048 11.9545 43.7941 12.1364 44.2475ZM12.5909 38.0365C11.9091 37.5378 11.4545 37.2205 11.0454 36.9031C10.2727 37.9459 9.5 38.9886 8.86363 40.122C8.77272 40.258 9.54545 40.8473 9.90909 41.2554C10.7273 40.258 11.5909 39.2153 12.5909 38.0365ZM16 45.3356C17.0909 45.2449 18.7727 42.1167 18.2727 41.346C18.1818 41.21 17.9545 40.938 17.8636 40.9833C17.2727 41.21 16.4091 41.3914 16.2727 41.8447C15.8636 42.8874 14.3636 43.7035 15.4545 45.1089C15.5455 45.2902 15.9091 45.3356 16 45.3356ZM19.7727 47.6023C20.5909 45.8796 21.1818 44.7462 21.6364 43.5675C21.6818 43.4315 20.9091 42.9328 20.5 42.6154C19.8182 43.6581 19.0909 44.7009 18.5455 45.7889C18.4545 46.0156 19.0455 46.5596 19.7727 47.6023Z" fill="#51D5DD"/>
<path d="M23.6818 14.0087C24.3182 14.4621 24.8636 14.8247 25.4545 15.2781C26.0909 14.7341 26.7273 14.2354 27.5 13.6007C26.6818 11.9233 26.4091 10.0645 28.2727 9.06713C29.2273 8.56843 30.9091 8.61377 31.8636 9.11246C33.5455 10.0645 33.3636 11.7873 32.7273 13.1927C33.6364 14.5981 34.5909 15.8221 35.2727 17.1822C35.7273 18.1342 35.3182 18.8143 34.1364 18.7689C32.8182 18.7236 31.5 18.7236 30.2273 18.7689C29.0455 18.8596 27.5909 18.2249 26.7727 19.7663C22.8636 19.7663 18.9545 19.7663 15.0455 19.7663C13.3182 17.7262 11.0455 19.2223 9.04545 18.7689C8.18182 18.5876 7.31818 18.4516 6.5 18.2702C6.81818 17.2275 7.04545 16.1848 7.5 15.2328C7.81818 14.5527 8.5 14.054 9.13636 13.3287C8.54545 11.8326 8.18182 9.9285 10.1364 8.97645C11.0909 8.5231 12.7727 8.56844 13.7273 9.1578C15.3182 10.1552 15.3182 11.8326 14.3182 13.51C15 14.0994 15.6364 14.6434 16.3636 15.2781C16.9545 14.8701 17.5 14.5074 18.1818 14.0087C17.1818 12.0139 16.8182 10.0192 18.9545 8.5231C20.4091 7.48038 21.9091 7.66172 23.2727 8.74978C24.6364 9.97384 24.7727 11.4699 23.6818 14.0087ZM25.1364 18.2702C24.4091 16.0941 22.9545 15.0514 20.7727 15.0968C18.6818 15.1421 17.2727 16.1848 16.6364 18.2702C19.4545 18.2702 22.2727 18.2702 25.1364 18.2702ZM8.18182 17.0915C10.6818 17.0915 12.8636 17.0915 15.2273 17.0915C14.5909 15.3688 13.3636 14.7794 11.8636 14.7341C10.2273 14.6887 9.04545 15.4594 8.18182 17.0915ZM33.5909 17.1822C32.5455 15.1874 31.1364 14.5074 29.3182 14.8247C28.0455 15.0514 26.9091 15.5501 26.7273 17.1822C29 17.1822 31.1364 17.1822 33.5909 17.1822ZM21.4091 9.20313C21.1364 9.20313 20.8182 9.1578 20.5455 9.1578C20 9.88317 19 10.6539 19 11.3792C19.0455 12.1046 20.1364 12.7393 20.7727 13.4647C21.4545 12.83 22.5909 12.2859 22.7273 11.5606C22.8182 10.8352 21.9091 9.97384 21.4091 9.20313ZM11.6818 9.2938C11 10.3819 10.2273 11.0166 10.3636 11.4699C10.5 12.0593 11.2727 12.83 11.8636 12.9206C12.2727 12.966 13.2273 12.0139 13.2273 11.5152C13.2273 10.9712 12.4545 10.3819 11.6818 9.2938ZM32.1818 11.6513C31.2273 10.8805 30.6364 10.0645 30.1818 10.1552C29.5455 10.2459 29 11.0166 28.4091 11.4699C28.9545 12.0139 29.4091 12.83 30.0455 13.0113C30.5 13.102 31.1364 12.3313 32.1818 11.6513Z" fill="#51D5DD"/>
<path d="M3.04545 9.02178C2.95454 8.97645 2.45454 8.70444 1.90909 8.38709C2.40909 8.0244 2.90909 7.57105 3.49999 7.2537C4.77272 6.48299 6.18181 5.9843 7.27272 5.03226C13.7273 -0.544014 23.0909 -1.63207 30.6818 2.44813C31.2273 2.76548 31.8182 3.08283 32.4091 3.40018C32.5455 2.76548 32.6818 2.22145 32.8636 1.58676C34 2.22145 35.3636 5.30427 34.9091 6.07497C34.7273 6.34699 34.3182 6.52833 33.9545 6.57367C33.2273 6.66434 32.5 6.75501 31.8182 6.66434C31.1818 6.57367 30.5455 6.30165 29.9545 6.12031C30.4091 5.66695 30.8636 5.2136 31.4545 4.66957C26.3182 1.45075 20.7727 0.589374 14.9091 2.5388C12.7727 3.26417 10.8636 4.62424 8.90909 5.75763C7.36363 6.66434 6.63636 7.93373 6.95454 9.83782C7.04545 10.3819 6.54545 11.0165 6.31818 11.6059C5.90909 11.1072 5.54545 10.6539 5.04545 9.97383C3.13636 12.6033 2.27272 15.6408 1.81818 18.9049C1.72727 19.721 1.18181 20.4917 0.863632 21.2624C0.681814 20.401 0.181814 19.449 0.409086 18.6329C1.13636 15.4594 2.13636 12.2859 3.04545 9.02178Z" fill="#51D5DD"/>
<path d="M41.9545 19.4036C41.4545 20.1743 41.1364 20.7184 40.7727 21.2624C40.5 20.7637 40.1364 20.3103 39.9545 19.7663C39.1818 17.0462 38.4091 14.326 37.6818 11.5606C37.5455 11.0619 37.6818 10.5179 37.6818 10.0192C38.1364 10.3365 38.9091 10.5179 39.0455 10.9259C40.0909 13.7367 41 16.5475 41.9545 19.4036Z" fill="#51D5DD"/>
</g>
<defs>
<clipPath id="clip0_6_54">
<rect width="42" height="48.1463" fill="white"/>
</clipPath>
</defs>
</svg>
