<svg width="42" height="44" viewBox="0 0 42 44" fill="none" xmlns="http://www.w3.org/2000/svg">
<g clip-path="url(#clip0_6_38)">
<path d="M22.7487 0C22.9121 0.415396 23.1082 0.830792 23.2716 1.21423C25.3308 0.862745 26.6382 1.98112 26.6382 3.99419C26.6382 4.21787 26.8016 4.47349 26.965 4.63326C28.1744 5.78359 28.2071 7.54103 27.0304 8.56354C26.867 8.72331 26.6382 8.91503 26.6382 9.10675C26.6055 11.1518 25.9518 11.7909 23.7292 11.9506C23.5331 11.9826 23.3043 12.1743 23.1409 12.366C22.1604 13.4205 20.232 13.4524 19.2187 12.4299C19.0226 12.2382 18.7285 12.0465 18.467 12.0145C16.6039 11.9506 15.7214 11.024 15.6561 9.13871C15.6561 8.91503 15.3292 8.65941 15.1331 8.46768C14.1199 7.57299 14.1526 5.65577 15.1658 4.69717C15.3946 4.50545 15.558 4.122 15.558 3.83442C15.46 2.14089 17.0942 0.862745 18.9246 1.27814C19.1534 0.862745 19.3495 0.415396 19.5783 0C20.6242 0 21.6701 0 22.7487 0ZM23.5985 10.0654C24.8405 10.6086 25.2327 10.3529 25.0366 9.17066C24.9386 8.62745 25.2981 7.79666 25.723 7.47712C26.6382 6.8061 26.7362 6.45461 25.7557 5.71968C25.2981 5.36819 25.0366 4.47349 25.0693 3.86638C25.1674 2.90777 24.8405 2.748 23.958 2.6841C23.2716 2.65214 22.4218 2.36456 21.9642 1.88526C21.3106 1.21423 20.9837 1.21423 20.2973 1.8533C19.8071 2.30065 18.9899 2.65214 18.3362 2.6841C17.4211 2.71605 17.1596 2.87582 17.1596 3.83442C17.1596 4.47349 16.8327 5.30429 16.3425 5.75163C15.6234 6.39071 15.5907 6.67829 16.3098 7.34931C16.8 7.79666 17.1596 8.62745 17.1596 9.26652C17.1596 10.289 17.3557 10.5447 18.4343 10.4168C18.9899 10.3529 19.8724 10.6405 20.1993 11.0559C20.8857 11.9506 21.3106 12.0145 22.0296 11.0879C22.3892 10.6405 23.0755 10.4168 23.5985 10.0654Z" fill="#FF6853"/>
<path d="M14.9043 27.1285C14.8062 24.3805 14.5121 21.7923 14.6428 19.2041C14.8062 16.2324 16.4078 14.7625 19.3821 14.3791C20.5261 14.2193 21.7354 14.2193 22.8794 14.3791C25.8864 14.7625 27.5533 16.3921 27.6514 19.3638C27.7494 21.8881 27.4553 24.4444 27.3245 27.0646C27.4226 27.0646 27.9455 27.0966 28.4358 27.0966C31.0506 27.1285 31.0506 27.1285 31.0506 29.7487C31.0506 31.4742 31.1486 33.0399 32.1619 34.6376C33.0117 36.0436 33.1424 37.8649 33.6327 39.6863C34.8093 40.0697 35.986 42.6899 34.8747 43.4248C33.9595 44.0319 32.3253 43.6165 31.0179 43.6165C31.0179 43.6165 30.9198 43.0733 30.9852 43.0414C31.3774 42.8497 31.8023 42.6579 32.2272 42.626C33.0117 42.5621 34.0249 42.8177 33.5019 41.252C32.8156 41.252 32.0638 41.252 31.3121 41.252C24.2195 41.252 17.1269 41.252 10.0342 41.252C9.21712 41.252 8.23658 41.1242 8.82491 42.626C11.4724 42.626 14.1525 42.626 16.8327 42.626C20.8202 42.626 24.8078 42.594 28.7953 42.6579C29.2202 42.6579 29.6778 43.1372 30.1027 43.3929C29.6778 43.5846 29.2529 43.968 28.828 43.968C22.0949 44 15.3619 43.968 8.6288 44C7.5502 44 7.1253 43.5846 7.22335 42.5621C7.35409 41.4118 6.4716 39.6543 9.02102 39.8141C8.92296 37.2897 9.64203 35.1169 10.9494 32.976C11.5704 31.9855 11.2763 30.4197 11.1782 29.1096C11.0475 27.5439 11.6031 26.8729 13.2374 27.0966C13.8911 27.1924 14.6101 27.1285 14.9043 27.1285ZM12.6817 37.6732C14.4467 37.6732 16.1463 37.7691 17.8132 37.6093C18.2055 37.5773 18.5323 36.8104 18.9245 36.3951C19.0226 36.2992 19.2514 36.2033 19.4148 36.2353C20.9183 36.5868 22.9774 35.085 23.958 37.4815C24.0234 37.6412 24.4809 37.6732 24.7424 37.6732C26.0171 37.7051 27.3245 37.7371 28.5992 37.6412C28.9588 37.6093 29.6125 37.13 29.6125 36.8424C29.6778 34.1264 29.6451 31.3783 29.6451 28.5984C23.8599 28.5984 18.2708 28.5984 12.6817 28.5984C12.6817 31.6659 12.6817 34.5417 12.6817 37.6732ZM16.0483 20.6739C16.3424 20.4502 16.5385 20.3544 16.6039 20.2266C17.5191 18.565 18.3035 18.6928 19.4802 20.1307C20.8856 21.8242 22.9121 22.4314 25.1673 22.2077C26.0825 22.1118 26.442 21.7284 26.4093 20.7698C26.3113 16.7756 24.579 15.2099 20.3953 15.5933C17.0288 15.9128 15.8848 17.159 16.0483 20.6739ZM18.0747 20.8656C17.6825 21.2171 17.3883 21.6006 16.9961 21.8242C15.2638 22.8148 16.0483 24.1249 16.4078 25.403C16.7673 26.809 17.6498 27.2563 19.1206 27.1285C20.4607 27.0007 21.8008 27.0966 23.1409 27.0966C25.3961 27.0966 26.4093 25.8504 26.0171 23.5178C22.8794 24.061 20.2646 23.0385 18.0747 20.8656ZM10.7206 36.1714C10.6226 37.3537 10.4918 38.5359 10.3938 39.6863C13.27 39.6863 15.8521 39.6863 18.6957 39.6863C18.3689 39.3348 18.2708 39.1431 18.1728 39.1431C16.8981 39.1111 15.6234 39.0791 14.3486 39.0791C11.3416 39.0472 11.3416 39.0472 10.7206 36.1714ZM31.5735 36.427C31.4428 36.427 31.3121 36.427 31.1813 36.427C31.1486 36.7146 31.0833 36.9702 31.116 37.2578C31.2794 38.6637 30.6584 39.2709 29.2202 39.1111C28.5992 39.0472 27.9455 39.1111 27.2918 39.1111C26.1479 39.1111 25.0039 39.1111 23.8599 39.1111C23.8599 39.3348 23.8599 39.5265 23.8926 39.7502C26.5401 39.7502 29.1876 39.7502 31.9658 39.7502C31.8023 38.5359 31.6716 37.4815 31.5735 36.427ZM20.0031 39.7821C20.8856 39.7821 21.5393 39.7821 22.2257 39.7821C22.2257 39.0152 22.2257 38.3762 22.2257 37.6732C21.4412 37.6732 20.7549 37.6732 20.0031 37.6732C20.0031 38.4081 20.0031 39.0472 20.0031 39.7821Z" fill="#FF6853"/>
<path d="M11.8973 18.0857C11.8646 18.3094 11.9627 18.8845 11.7339 19.3319C10.3938 21.8562 9.11912 24.4125 7.58293 26.841C6.92923 27.8954 5.55647 27.9913 4.67398 27.1285C3.82418 26.2978 3.26853 25.1794 2.68021 24.1249C2.12457 23.1663 1.76503 22.0479 1.14402 21.1213C-0.294112 18.9804 -0.359481 16.6158 1.14402 14.5708C2.61484 12.5577 5.36036 11.663 7.84441 12.4299C10.1977 13.1329 11.8646 15.3057 11.8973 18.0857ZM3.72612 22.5592C5.98137 22.4953 8.36737 23.2941 9.67476 20.3224C10.5573 18.3413 10.688 16.1685 9.05375 14.6986C7.32145 13.1009 4.57593 13.1009 2.84363 14.6667C1.17671 16.1685 0.947912 18.4052 2.22262 20.2585C2.74558 20.9935 3.20316 21.7284 3.72612 22.5592Z" fill="#FF6853"/>
<path d="M30.593 19.8751C30.593 18.2774 30.6257 16.6797 30.593 15.0821C30.5604 14.0276 30.8872 13.4844 32.0965 13.4844C34.4499 13.5163 36.7705 13.4524 39.1238 13.5163C40.5619 13.5483 42.0001 14.9862 42.0001 16.4241C42.0327 19.236 42.0001 22.0479 42.0001 24.8279C42.0001 25.7226 41.7386 26.2338 40.6927 26.2019C37.751 26.1699 34.8421 26.1699 31.9004 26.2019C30.8872 26.2019 30.5604 25.7865 30.5604 24.8598C30.6257 23.1982 30.593 21.5367 30.593 19.8751ZM40.5619 24.7001C40.5619 21.8562 40.6273 19.1401 40.4966 16.4241C40.4639 15.8809 39.6141 14.9862 39.0911 14.9542C36.8032 14.7945 34.4825 14.8903 32.0965 14.8903C32.0965 18.3094 32.0965 21.4728 32.0965 24.7001C34.9401 24.7001 37.6857 24.7001 40.5619 24.7001Z" fill="#FF6853"/>
<path d="M21.1798 3.45099C22.9448 3.48295 24.3502 4.95281 24.3175 6.6783C24.2522 8.43574 22.814 9.74584 20.9837 9.68193C19.2841 9.61802 17.9113 8.24402 17.9113 6.58244C17.944 4.85695 19.4475 3.41904 21.1798 3.45099ZM20.7549 8.56356C21.0164 8.56356 21.3105 8.56356 21.572 8.56356C21.9969 7.89253 22.716 7.25346 22.814 6.51853C22.9448 5.49602 22.1277 4.66523 21.0817 4.8889C20.3954 5.04867 19.5129 5.94337 19.4148 6.61439C19.3821 7.22151 20.2973 7.92449 20.7549 8.56356Z" fill="#FF6853"/>
<path d="M35.5285 20.1946C36.2149 19.4597 37.0647 18.4691 38.0125 17.5744C38.274 17.3188 38.797 17.3508 39.1892 17.2869C39.1238 17.7023 39.2219 18.2135 38.9931 18.4691C38.0125 19.6514 36.9666 20.8018 35.8226 21.8882C35.5938 22.1118 34.646 22.0479 34.4499 21.7923C33.9596 21.1213 33.6654 20.2905 33.3059 19.5236C33.9923 19.7153 34.646 19.939 35.5285 20.1946Z" fill="#FF6853"/>
</g>
<defs>
<clipPath id="clip0_6_38">
<rect width="42" height="44" fill="white"/>
</clipPath>
</defs>
</svg>
