<svg width="42" height="44" viewBox="0 0 42 44" fill="none" xmlns="http://www.w3.org/2000/svg">
<g clip-path="url(#clip0_6_33)">
<path d="M35.8886 8.89429C35.7015 10.4343 36.3563 11.3143 37.9465 11.7543C41.9064 12.8857 43.216 16.94 40.7216 20.2086C39.7238 21.4971 39.6926 22.5029 40.7216 23.7914C43.2472 27.06 41.9376 31.0829 37.9777 32.2457C36.3875 32.7171 35.8574 33.5343 35.8886 35.1686C35.9822 39.3171 32.6459 41.7057 28.7483 40.3543C27.1893 39.82 26.285 40.1971 25.3808 41.5171C23.1046 44.8486 18.8953 44.8486 16.6815 41.5171C15.7149 40.04 14.7171 39.8514 13.1269 40.4171C9.38527 41.7371 6.04897 39.2229 6.14251 35.1686C6.17369 33.5657 5.64362 32.7171 4.05342 32.2771C0.0623317 31.1143 -1.21606 27.06 1.27837 23.7914C2.27614 22.5029 2.27614 21.4971 1.27837 20.2086C-1.21606 16.94 0.0623317 12.8857 4.02224 11.7543C5.61244 11.2829 6.17369 10.4657 6.11133 8.86286C6.01779 4.71429 9.35409 2.29429 13.2516 3.67715C14.8107 4.21143 15.7149 3.86572 16.6191 2.51429C18.8641 -0.817141 23.0735 -0.817141 25.3185 2.51429C26.285 3.96 27.2828 4.21143 28.873 3.64572C32.6147 2.29429 35.8886 4.80857 35.8886 8.89429ZM21.0156 41.2971C21.7951 40.6686 22.5746 40.2914 23.0423 39.6629C25.0378 37.0857 26.5657 36.5514 29.7149 37.5257C31.6793 38.1543 32.9265 37.2743 32.9888 35.1686C33.0824 31.68 33.8931 30.5486 37.1982 29.3857C39.069 28.7257 39.5679 27.28 38.4766 25.6457C36.3875 22.44 36.3875 21.5286 38.4766 18.3543C39.5679 16.72 39.069 15.2743 37.2294 14.5829C33.8931 13.3886 33.0824 12.2886 32.9888 8.8C32.9265 6.69429 31.7104 5.78286 29.7461 6.41143C26.5969 7.41715 25.0378 6.91429 23.1046 4.30572C21.8263 2.57715 20.236 2.57715 18.9577 4.30572C16.9933 6.94572 15.4654 7.41715 12.3162 6.44286C10.3519 5.81429 9.10465 6.72572 9.07347 8.8C8.94875 12.2571 8.10687 13.42 4.80175 14.6143C2.86857 15.3057 2.43204 16.7829 3.64808 18.5114C5.58126 21.2771 5.58126 22.7543 3.67926 25.52C2.40086 27.3429 2.86857 28.7571 4.98883 29.48C8.04451 30.5171 8.97993 31.8686 9.07347 35.2C9.10465 37.3057 10.3519 38.2171 12.3162 37.62C15.559 36.6143 16.8686 37.0857 19.0824 39.8514C19.4877 40.3857 20.2049 40.7314 21.0156 41.2971Z" fill="#23CC48"/>
<path d="M18.9888 24.1686C21.6703 21.4343 24.1647 18.92 26.6592 16.3743C27.0021 16.0286 27.3451 15.6829 27.6881 15.3371C28.4053 14.5829 29.3719 14.1743 29.9955 15.1486C30.3073 15.6514 30.1514 16.9086 29.746 17.3486C26.5968 20.68 23.3229 23.9171 20.0801 27.1543C19.1759 28.0657 18.2716 28.1286 17.4609 27.06C16.089 25.2686 14.6547 23.4771 13.4387 21.5914C13.0957 21.0571 13.4698 20.1143 13.5322 19.36C14.2494 19.5486 15.2471 19.4543 15.6837 19.9257C16.8685 21.1514 17.8039 22.5971 18.9888 24.1686Z" fill="#23CC48"/>
</g>
<defs>
<clipPath id="clip0_6_33">
<rect width="42" height="44" fill="white"/>
</clipPath>
</defs>
</svg>
