<svg width="42" height="44" viewBox="0 0 42 44" fill="none" xmlns="http://www.w3.org/2000/svg">
<g clip-path="url(#clip0_6_47)">
<path d="M9.64825 38.5537C10.7362 34.1967 13.1984 31.2156 17.4356 29.6391C15.7464 27.9479 14.4294 26.0274 15.002 23.6769C15.3456 22.2723 16.1472 20.7818 17.2065 19.8072C19.5256 17.6287 23.1043 17.944 25.3374 20.1798C27.8855 22.7309 27.7137 25.884 24.7076 29.6678C28.8016 31.2443 31.3211 34.2254 32.409 38.7257C36.3026 35.3147 38.2208 31.2443 38.593 26.4C38.6789 25.1961 38.4499 23.9922 38.4785 22.7596C38.4785 22.3296 38.8221 21.9283 39.0225 21.4984C39.3374 21.8423 39.8814 22.1577 39.8814 22.5016C39.8814 24.8521 40.139 27.2886 39.6237 29.5244C37.82 37.0632 33.0102 41.8502 25.5092 43.914C25.3374 43.9713 25.1084 44.086 24.9652 44.0287C24.4213 43.8853 23.9059 43.6847 23.3619 43.5127C23.7628 43.1974 24.135 42.7674 24.593 42.5668C26.2536 41.9075 27.9141 41.3055 29.6033 40.7036C30.7485 40.2736 31.0061 39.557 30.6912 38.2958C29.5746 33.7954 25.5951 30.6137 20.8998 30.671C16.2331 30.6997 12.3108 33.9961 11.2802 38.5251C11.0225 39.643 11.3374 40.245 12.2822 40.6176C13.9427 41.2769 15.6033 41.8502 17.2638 42.5381C17.7791 42.7674 18.2086 43.1974 18.6667 43.5414C18.0654 43.6847 17.4069 44.086 16.863 43.9713C9.70551 42.6528 3.49283 36.2893 2.26175 28.9511C1.94682 27.0306 1.97545 25.0814 2.00408 23.1896C2.03271 22.6163 2.66257 22.043 3.03475 21.4697C3.1779 22.0717 3.52146 22.7023 3.4642 23.3042C2.92023 29.1805 5.26788 35.1427 9.64825 38.5537ZM16.4335 24.3648C16.3763 26.8873 18.4662 29.0371 20.957 29.0371C23.4765 29.0658 25.5951 26.9733 25.5951 24.4508C25.5951 22.0143 23.591 19.9505 21.1575 19.8645C18.6667 19.7785 16.4908 21.8423 16.4335 24.3648Z" fill="#75ACFF"/>
<path d="M15.4888 16.4534C15.7464 14.4756 15.8037 13.0997 16.1186 11.7811C16.4049 10.6059 16.1472 9.80325 15.2025 9.14397C14.1145 8.37002 13.0552 7.59608 11.9673 6.82214C12.1677 6.47817 12.3395 6.10553 12.5399 5.76156C13.4847 5.58957 14.4008 5.30292 15.3456 5.24559C17.2924 5.13094 18.6953 4.50032 19.3252 2.46514C19.6115 1.57654 20.3845 0.831262 20.9571 0.028656C21.5583 0.859926 22.3886 1.63387 22.7321 2.55113C23.3906 4.32833 24.4785 5.1596 26.3967 5.21693C27.4274 5.24559 28.4295 5.5609 29.4315 5.76156C29.4888 5.96221 29.5746 6.16286 29.6319 6.36351C28.7158 7.28077 27.8569 8.25537 26.8834 9.08664C25.9387 9.86058 25.6237 10.6632 25.9387 11.8958C26.2536 13.157 26.3108 14.4756 26.5685 16.4534C24.9939 15.6795 23.9059 15.2782 22.9612 14.6475C21.6442 13.7876 20.4704 13.673 19.1534 14.6189C18.2086 15.2495 17.092 15.6508 15.4888 16.4534ZM15.0879 6.62149C16.2618 7.99739 17.4356 8.82866 17.8078 9.91791C18.1513 10.9785 17.636 12.2971 17.4928 13.6443C18.8385 13.071 19.955 12.2111 21.0429 12.2111C22.1881 12.2111 23.3333 13.071 24.908 13.7303C23.4765 10.7205 24.4213 8.59934 26.8262 6.79348C23.7342 6.9368 21.9305 5.5609 20.9571 2.5798C20.2699 5.76156 18.2659 6.85081 15.0879 6.62149Z" fill="#75ACFF"/>
<path d="M14.544 10.8925C13.8282 11.7238 13.5133 12.2971 13.0266 12.6124C11.3374 13.7876 10.908 15.2782 11.5092 17.2273C11.681 17.772 11.4519 18.4026 11.4233 19.0045C10.8221 18.8899 10.0777 18.9472 9.67689 18.6032C7.93047 17.1987 6.3272 17.6 4.63804 18.6892C4.20859 18.9759 3.57873 18.9186 3.06339 19.0332C3.00613 18.5172 2.74847 17.9153 2.89162 17.4567C3.57873 15.3642 3.12065 13.7589 1.28834 12.4977C0.858896 12.2111 0.572597 11.6951 0 10.9785C0.944785 10.6918 1.57464 10.3192 2.2045 10.3479C4.23722 10.4339 5.35378 9.45927 6.0409 7.62474C6.24131 7.05145 6.87117 6.62148 7.32924 6.13419C7.70143 6.62148 8.2454 7.02279 8.44581 7.56741C9.10429 9.37327 10.1922 10.4339 12.2536 10.3192C12.7975 10.2905 13.4274 10.6058 14.544 10.8925ZM4.60941 16.8834C6.44172 15.4788 8.07362 15.6221 9.8773 16.9407C9.07566 14.7622 9.73415 13.1857 11.5092 11.8957C9.27607 11.8957 7.9591 10.8352 7.1002 8.77132C6.69939 11.2938 4.89571 11.5804 2.69121 11.9244C4.80982 13.1857 5.26789 14.7622 4.60941 16.8834Z" fill="#75ACFF"/>
<path d="M42 10.9212C41.5992 11.5518 41.4847 11.8958 41.2556 12.0677C39.137 13.5583 38.364 15.3928 39.2802 17.944C39.6524 18.9472 38.9939 19.3772 37.9918 19.0332C37.7055 18.9186 37.3906 18.8039 37.1329 18.6033C35.5583 17.342 34.0695 17.514 32.4376 18.6033C31.9509 18.9472 31.1779 18.8612 30.5194 18.9759C30.5194 18.3739 30.3477 17.7147 30.5194 17.17C31.0634 15.3068 30.6626 13.8449 29.0593 12.727C28.5726 12.3831 28.229 11.8384 27.5419 11.0932C28.4867 10.7778 29.1166 10.4052 29.7178 10.4052C31.6933 10.4625 32.9243 9.63127 33.5828 7.71075C33.7832 7.13746 34.4131 6.67882 34.8139 6.19153C35.2434 6.70749 35.8446 7.16612 36.045 7.76808C36.6462 9.6026 37.8201 10.4052 39.7383 10.4052C40.3967 10.3192 41.0552 10.6632 42 10.9212ZM32.1513 16.9407C33.9837 15.5648 35.6728 15.5935 37.6196 16.912C36.4172 14.6476 37.5624 13.243 39.5378 11.6378C36.7894 11.9244 35.5869 10.7778 34.728 8.3127C34.1268 10.9785 32.6667 11.7811 30.0614 11.7238C32.3231 13.1857 32.9816 14.7622 32.1513 16.9407Z" fill="#75ACFF"/>
</g>
<defs>
<clipPath id="clip0_6_47">
<rect width="42" height="44" fill="white"/>
</clipPath>
</defs>
</svg>
