<svg width="10" height="10" viewBox="0 0 10 10" fill="none" xmlns="http://www.w3.org/2000/svg">
<path fill-rule="evenodd" clip-rule="evenodd" d="M5 10C6.32608 10 7.59785 9.47322 8.53553 8.53553C9.47322 7.59785 10 6.32608 10 5C10 3.67392 9.47322 2.40215 8.53553 1.46447C7.59785 0.526784 6.32608 0 5 0C3.67392 0 2.40215 0.526784 1.46447 1.46447C0.526784 2.40215 0 3.67392 0 5C0 6.32608 0.526784 7.59785 1.46447 8.53553C2.40215 9.47322 3.67392 10 5 10ZM7.31687 4.55813L5.44187 2.68313C5.324 2.56928 5.16612 2.50628 5.00225 2.5077C4.83838 2.50913 4.68162 2.57486 4.56574 2.69074C4.44986 2.80662 4.38413 2.96338 4.3827 3.12725C4.38128 3.29112 4.44428 3.449 4.55813 3.56687L5.36625 4.375H3.125C2.95924 4.375 2.80027 4.44085 2.68306 4.55806C2.56585 4.67527 2.5 4.83424 2.5 5C2.5 5.16576 2.56585 5.32473 2.68306 5.44194C2.80027 5.55915 2.95924 5.625 3.125 5.625H5.36625L4.55813 6.43313C4.49843 6.49078 4.45082 6.55974 4.41806 6.636C4.38531 6.71225 4.36806 6.79426 4.36734 6.87725C4.36662 6.96024 4.38244 7.04254 4.41386 7.11935C4.44529 7.19616 4.4917 7.26594 4.55038 7.32462C4.60906 7.3833 4.67884 7.42971 4.75565 7.46114C4.83246 7.49256 4.91476 7.50838 4.99775 7.50766C5.08074 7.50694 5.16275 7.48969 5.239 7.45694C5.31526 7.42418 5.38422 7.37657 5.44187 7.31687L7.31687 5.44187C7.43404 5.32467 7.49987 5.16573 7.49987 5C7.49987 4.83427 7.43404 4.67533 7.31687 4.55813Z" fill="white"/>
</svg>
