<svg width="35" height="40" viewBox="0 0 35 40" fill="none" xmlns="http://www.w3.org/2000/svg">
<mask id="path-1-inside-1_1_3389" fill="white">
<path fill-rule="evenodd" clip-rule="evenodd" d="M34.3583 32.022C30.8938 36.1491 25.6965 38.7727 19.8864 38.7727C9.45571 38.7727 1 30.317 1 19.8864C1 9.45571 9.45571 1 19.8864 1C25.6965 1 30.8938 3.62358 34.3583 7.75068C34.5656 7.48199 34.7795 7.21874 35 6.9612C31.3527 2.70033 25.9349 0 19.8864 0C8.90343 0 0 8.90343 0 19.8864C0 30.8693 8.90343 39.7727 19.8864 39.7727C25.9349 39.7727 31.3527 37.0724 35 32.8115C34.7795 32.554 34.5656 32.2907 34.3583 32.022Z"/>
</mask>
<path fill-rule="evenodd" clip-rule="evenodd" d="M34.3583 32.022C30.8938 36.1491 25.6965 38.7727 19.8864 38.7727C9.45571 38.7727 1 30.317 1 19.8864C1 9.45571 9.45571 1 19.8864 1C25.6965 1 30.8938 3.62358 34.3583 7.75068C34.5656 7.48199 34.7795 7.21874 35 6.9612C31.3527 2.70033 25.9349 0 19.8864 0C8.90343 0 0 8.90343 0 19.8864C0 30.8693 8.90343 39.7727 19.8864 39.7727C25.9349 39.7727 31.3527 37.0724 35 32.8115C34.7795 32.554 34.5656 32.2907 34.3583 32.022Z" fill="#171B26"/>
<path d="M34.3583 32.022L35.1501 31.4112L34.3912 30.4275L33.5924 31.3791L34.3583 32.022ZM34.3583 7.75068L33.5924 8.39363L34.3912 9.34524L35.1501 8.36147L34.3583 7.75068ZM35 6.9612L35.7597 7.61149L36.3163 6.9612L35.7597 6.31091L35 6.9612ZM35 32.8115L35.7597 33.4618L36.3163 32.8115L35.7597 32.1612L35 32.8115ZM19.8864 39.7727C26.0044 39.7727 31.4778 37.0087 35.1242 32.665L33.5924 31.3791C30.3097 35.2895 25.3885 37.7727 19.8864 37.7727V39.7727ZM0 19.8864C0 30.8693 8.90343 39.7727 19.8864 39.7727V37.7727C10.008 37.7727 2 29.7647 2 19.8864H0ZM19.8864 0C8.90343 0 0 8.90343 0 19.8864H2C2 10.008 10.008 2 19.8864 2V0ZM35.1242 7.10774C31.4778 2.76398 26.0044 0 19.8864 0V2C25.3885 2 30.3097 4.48318 33.5924 8.39363L35.1242 7.10774ZM35.1501 8.36147C35.347 8.10623 35.5503 7.85616 35.7597 7.61149L34.2403 6.31091C34.0088 6.58133 33.7841 6.85775 33.5665 7.13989L35.1501 8.36147ZM35.7597 6.31091C31.9305 1.83756 26.2393 -1 19.8864 -1V1C25.6305 1 30.7749 3.5631 34.2403 7.61149L35.7597 6.31091ZM19.8864 -1C8.35114 -1 -1 8.35114 -1 19.8864H1C1 9.45571 9.45571 1 19.8864 1V-1ZM-1 19.8864C-1 31.4216 8.35114 40.7727 19.8864 40.7727V38.7727C9.45571 38.7727 1 30.317 1 19.8864H-1ZM19.8864 40.7727C26.2393 40.7727 31.9305 37.9352 35.7597 33.4618L34.2403 32.1612C30.7749 36.2096 25.6305 38.7727 19.8864 38.7727V40.7727ZM35.7597 32.1612C35.5502 31.9166 35.347 31.6665 35.1501 31.4112L33.5665 32.6328C33.7841 32.915 34.0088 33.1914 34.2403 33.4618L35.7597 32.1612Z" fill="black" mask="url(#path-1-inside-1_1_3389)"/>
<circle cx="19.7827" cy="19.7826" r="13.6956" fill="#171B26"/>
<path d="M22.0761 18.5887C22.4094 18.7812 22.4094 19.2623 22.076 19.4548L17.8695 21.8834C17.5362 22.0759 17.1195 21.8353 17.1195 21.4504V16.5931C17.1195 16.2082 17.5362 15.9677 17.8695 16.1601L22.0761 18.5887Z" fill="#F9BC45"/>
</svg>
