<svg width="50" height="50" viewBox="0 0 50 50" fill="none" xmlns="http://www.w3.org/2000/svg">
<g clip-path="url(#clip0_6_115)">
<path d="M21.656 21.4377C15.2547 18.925 9.61779 19.6248 4.74518 24.1095C-1.05099 29.453 -1.56055 38.3907 3.4713 44.4021C8.53499 50.509 17.2611 51.654 23.6942 47.1057C30.1273 42.5573 32.07 33.8423 27.8025 27.2265C26.2738 24.841 26.9108 22.4555 26.7834 20.0382C26.7834 19.7838 27.8662 19.1477 28.2484 19.2749C30.1273 19.911 32.07 20.5153 33.7579 21.5332C35.7643 22.7418 37.4522 24.4594 39.4586 25.668C40.414 26.2405 41.9745 26.654 42.8344 26.2405C43.7898 25.7952 44.8726 24.3321 44.9044 23.3143C45.0955 17.2393 45.0955 11.1324 44.9044 5.05733C44.8726 4.00771 43.7898 2.57641 42.8344 2.13112C41.9745 1.71763 40.3821 2.13112 39.4586 2.70364C37.293 4.03952 35.414 5.8843 33.2484 7.18837C30.8917 8.58786 28.535 10.21 25.5414 7.98354C23.6942 6.61585 20.9554 8.2698 20.9554 10.6871C20.9554 13.7405 21.4331 16.794 21.6879 19.8792C21.6879 20.2609 21.656 20.738 21.656 21.4377ZM1.68786 34.7965C1.71971 27.481 7.80251 21.565 15.191 21.6286C22.4522 21.6922 28.3439 27.6718 28.3439 34.9555C28.3439 42.3029 22.293 48.2825 14.9363 48.2189C7.57958 48.1871 1.65601 42.1438 1.68786 34.7965ZM38.2802 22.1057C34.7452 20.3245 31.2738 18.5751 27.6114 16.6986C27.6114 15.14 27.6114 13.009 27.6114 11.6095C31.4331 9.66929 34.8726 7.91992 38.2802 6.17056C38.2802 11.4505 38.2802 16.8258 38.2802 22.1057ZM40 14.1222C40 11.2914 40.0318 8.46064 40 5.62985C40 4.48481 40.2547 3.467 41.5923 3.40338C43.0573 3.33977 43.3439 4.38939 43.3439 5.66165C43.3121 11.3232 43.4076 16.9848 43.2802 22.6464C43.2484 23.4097 42.3885 24.7138 41.7516 24.8092C40.3821 25.0637 40 23.855 40 22.6146C40 19.7838 40 16.953 40 14.1222ZM22.5477 14.2176C22.5477 13.0408 22.3566 11.8321 22.6114 10.7189C22.7388 10.1146 23.6305 9.28761 24.2038 9.28761C24.7452 9.28761 25.7006 10.1782 25.7643 10.7189C25.9554 12.9772 25.9554 15.2673 25.7643 17.5255C25.7324 18.0662 24.7452 18.9568 24.1719 18.9568C23.6305 18.9568 22.7707 18.098 22.6114 17.4937C22.3566 16.4759 22.5159 15.3309 22.5477 14.2176Z" fill="white"/>
<path d="M37.5159 48.4415C35.3822 43.9886 31.9108 44.911 28.6306 44.9428C28.1529 45.9606 28.1847 46.7876 29.5542 46.5331C32.9618 45.9288 35.414 47.3601 37.1656 50.0001C37.5159 49.9364 37.7389 49.9364 37.7707 49.8728C39.9363 46.8194 42.9299 46.2151 46.465 46.5331C49.1401 46.7876 49.9682 45.8016 49.9682 43.1616C49.9682 39.2176 49.9682 35.2736 49.9682 31.3296C50 29.5166 49.2357 28.3079 47.3567 28.3079C41.9427 28.2443 36.5605 28.2761 31.2102 28.2761C30.3503 29.8347 31.2102 29.9301 32.3567 29.9301C36.9427 29.8983 41.5287 29.9937 46.0828 29.8983C47.7389 29.8665 48.4395 30.28 48.3758 32.0929C48.2484 35.7507 48.3121 39.4403 48.344 43.098C48.3758 44.4339 47.9299 45.0382 46.5605 44.911C46.0828 44.8474 45.5733 44.9428 45.0956 44.911C42.1975 44.7202 39.3312 44.6247 37.5159 48.4415Z" fill="white"/>
<path d="M37.6434 34.8282C37.5478 34.3511 37.4841 33.9058 37.3886 33.3333C35.6052 33.3333 33.7899 33.3333 31.8472 33.3333C31.8472 36.514 31.8472 39.7264 31.8472 43.4478C33.7899 43.1615 35.7326 42.7163 37.6434 42.6526C39.3313 42.6208 41.0192 43.0343 42.7071 43.1934C44.5542 43.3842 45.9555 42.9071 46.465 40.8397C47.4523 36.9593 47.3568 36.4185 45.1593 34.9236C44.809 34.6692 44.7771 34.0012 44.4268 33.6832C43.6943 32.9516 42.9619 31.8702 42.102 31.743C41.3695 31.6157 40.3504 32.5063 39.6179 33.1425C39.0447 33.6514 38.6943 34.4465 38.2485 35.1145C38.0255 35.0191 37.8345 34.9236 37.6434 34.8282ZM42.7389 36.1323C43.6625 36.6094 45.2867 37.1183 45.2548 37.5318C45.1912 38.8677 44.7134 41.2213 44.0765 41.3168C42.2294 41.6348 40.0638 41.444 38.3759 40.6488C37.5797 40.2671 37.5797 38.1361 37.2294 36.7684C37.4523 36.832 37.7071 36.8956 37.93 36.9593C38.6625 36.514 39.4905 36.1641 40.1593 35.5916C40.9236 34.9236 41.5287 34.0967 42.1975 33.3333C42.3568 34.3193 42.5797 35.3053 42.7389 36.1323ZM35.7326 41.444C34.9045 41.444 34.2039 41.444 33.4714 41.444C33.4714 39.2175 33.4714 37.1183 33.4714 35.0191C34.2676 35.0191 34.9682 35.0191 35.7326 35.0191C35.7326 37.2137 35.7326 39.3129 35.7326 41.444Z" fill="white"/>
<path d="M20.5733 6.87025C21.7516 6.67941 22.0701 6.23412 21.3376 5.12088C19.1083 1.62216 14.2039 -0.540694 9.96819 0.159052C5.15927 0.954218 1.49685 4.35753 0.382202 9.06491C-0.636906 13.3906 1.05099 18.4161 4.42679 20.7061C4.80895 20.9606 5.54144 20.7379 6.11469 20.4835C0.605131 14.6629 0.254814 8.42877 5.15927 4.10307C8.72615 0.954217 15.9555 -0.0635939 20.5733 6.87025Z" fill="white"/>
<path d="M16.6879 11.5776C16.6879 10.2736 16.7516 8.93769 16.6561 7.63362C16.5606 5.94787 15.4141 5.24812 13.9809 6.07509C11.7835 7.34736 9.61788 8.71504 7.51597 10.1781C6.14654 11.1323 6.30577 12.3092 7.61151 13.1998C9.61787 14.5675 11.6561 15.8397 13.7262 17.0802C15.3822 18.0662 16.5606 17.4301 16.6561 15.4899C16.7198 14.1858 16.6879 12.8817 16.6879 11.5776ZM14.9363 15.9351C12.5478 14.4084 10.5096 13.1044 8.24845 11.6413C10.637 10.1145 12.707 8.84227 14.9363 7.44278C14.9363 10.369 14.9363 12.9453 14.9363 15.9351Z" fill="white"/>
<path d="M48.6943 1.39954C48.0892 2.41735 45.4141 2.54457 47.1975 4.73923C47.9937 3.59419 49.9364 3.21251 48.6943 1.39954Z" fill="white"/>
<path d="M46.4968 10.7825C47.8662 10.7825 48.7898 10.7825 49.9363 10.7825C49.8407 10.2418 49.8407 9.38302 49.7133 9.35121C48.8535 9.19218 47.9299 9.12856 47.07 9.25579C46.8471 9.2876 46.7516 10.0828 46.4968 10.7825Z" fill="white"/>
<path d="M46.8471 17.5891C46.3376 18.8932 46.9108 19.2431 48.0573 19.1476C48.949 19.0522 50.3821 19.6247 49.8407 17.5891C48.9172 17.5891 47.9936 17.5891 46.8471 17.5891Z" fill="white"/>
<path d="M47.2293 23.6959C46.1146 24.9364 46.1146 24.9364 48.4713 26.972C49.8089 25.9224 49.8089 25.9224 47.2293 23.6959Z" fill="white"/>
<path d="M8.98092 44.8156C13.1847 44.8156 16.9109 44.8156 20.6051 44.8156C21.1465 41.3487 20 37.6591 17.3567 34.6693C17.8981 34.4466 18.3121 34.1604 18.758 34.0968C21.8472 33.7787 21.9427 33.7151 22.4204 30.439C19.9363 28.5942 16.2421 27.8309 16.6242 23.4734C15.0956 23.0281 13.8217 23.1871 12.5796 24.4276C7.96181 29.1031 7.29302 32.3156 9.74525 38.4543C10 39.1222 9.74525 40.0446 9.64971 40.808C9.49048 42.112 9.2357 43.3525 8.98092 44.8156ZM15.223 39.9174C15.1911 40.0446 15.1274 40.14 15.0956 40.2673C14.1083 39.8856 12.6115 39.7583 12.2293 39.0586C10.6688 35.9416 11.7516 31.8067 14.4586 29.4212C16.2102 27.8945 16.9109 27.9899 18.2803 29.8665C18.5669 30.28 19.0765 30.5344 19.4586 30.8843C19.7771 31.1706 20.0956 31.4568 20.414 31.7749C20 31.9975 19.5542 32.2202 19.1402 32.4428C18.121 32.9517 16.6879 33.238 16.1465 34.065C15.2867 35.4008 16.4013 36.3868 17.4841 37.3092C17.9618 37.7227 18.0255 38.6133 18.2803 39.2812C17.6752 39.5039 17.1019 39.7583 16.4968 39.9174C16.051 39.981 15.637 39.9174 15.223 39.9174ZM19.0765 43.1299C16.4013 43.1299 13.6943 43.1299 11.0191 43.1299C10.5414 41.5077 11.5924 41.6031 12.6115 41.5713C18.8535 41.4123 18.8535 41.4123 19.0765 43.1299ZM10.0637 32.2202C10.1274 29.1349 12.1975 26.9403 14.9682 25.1591C14.9045 26.0179 14.6816 26.8449 14.2038 27.4492C12.8663 29.1349 11.3695 30.6935 10.0637 32.2202Z" fill="white"/>
<path d="M29.5542 13.5814C31.9746 13.0407 34.395 12.4682 36.8153 11.9275C36.8472 11.6094 36.879 11.3231 36.9109 11.0051C36.3376 10.846 35.7325 10.4644 35.223 10.5598C33.5351 10.8142 31.879 11.1959 30.223 11.6412C29.7453 11.7684 29.3631 12.3091 28.9491 12.659C29.172 13.0089 29.3631 13.2952 29.5542 13.5814Z" fill="white"/>
</g>
<defs>
<clipPath id="clip0_6_115">
<rect width="50" height="50" fill="white" transform="matrix(-1 0 0 1 50 0)"/>
</clipPath>
</defs>
</svg>
