<svg width="50" height="50" viewBox="0 0 50 50" fill="none" xmlns="http://www.w3.org/2000/svg">
<g clip-path="url(#clip0_6_215)">
<path d="M39.7501 35.9885C39.7501 38.7396 39.7821 41.4907 39.7501 44.2418C39.7181 47.8567 37.8923 49.84 34.3049 49.904C28.155 50 21.973 50 15.7911 49.904C12.1716 49.84 10.3459 47.8887 10.3139 44.2738C10.2818 41.0109 10.2818 37.7799 10.2818 34.5169C10.2818 34.389 10.2178 34.261 10.0896 33.8132C8.19982 33.8132 6.18189 33.8132 4.19598 33.8132C1.12103 33.7812 0.0319818 32.7255 -4.8954e-05 29.6545C-4.8954e-05 27.5752 -0.0320797 25.4638 0.0319818 23.3845C0.128074 21.0173 1.21712 19.9296 3.58739 19.8656C5.73345 19.8016 7.91155 19.8656 10.3139 19.8656C10.3139 18.9379 10.3139 18.2022 10.3139 17.4984C10.3139 13.3717 10.2818 9.24503 10.3459 5.11835C10.3779 2.33524 12.0755 0.191924 14.7021 0.159934C21.6207 0.0319751 28.5073 0.0319751 35.426 0.159934C38.0204 0.223914 39.686 2.36723 39.7181 5.18233C39.7821 9.85283 39.686 14.5233 39.7821 19.1938C39.7821 19.9296 40.3907 20.6654 40.647 21.4331C41.1595 22.8087 41.5759 24.2482 42.1204 25.5918C42.3126 26.1036 42.6329 26.7434 43.0813 26.9034C45.3235 27.7351 45.7399 29.2066 44.2024 30.9981C43.9141 31.318 43.85 31.9578 43.9461 32.4056C44.1703 33.5892 44.7149 34.7409 44.811 35.9245C44.875 36.5643 44.3946 37.492 43.85 37.8439C43.4977 38.0678 42.5368 37.556 41.9923 37.2041C41.3516 36.7882 40.8392 36.1804 40.2626 35.6686C40.1024 35.7645 39.9103 35.8925 39.7501 35.9885ZM31.1018 35.3487C31.9666 36.8842 32.7674 37.8759 33.1197 38.9955C33.344 39.7313 32.8955 40.659 32.7354 41.4907C31.8705 41.2348 30.7815 41.2028 30.2049 40.627C29.4042 39.8592 29.0518 38.6756 28.3792 37.7159C28.0589 37.2681 27.5464 36.7562 27.098 36.6922C25.1441 36.4683 23.9269 35.5406 23.7668 33.5253C23.6066 31.6699 24.5996 30.7102 26.9058 29.9424C29.5643 29.0467 32.2549 28.087 34.7853 26.8394C37.3478 25.5918 38.5009 23.1926 38.5329 20.4095C38.597 15.2591 38.597 10.1088 38.5329 4.99039C38.5009 2.71912 37.1236 1.24759 34.8814 1.2156C28.3792 1.11963 21.877 1.11963 15.3747 1.2156C12.9724 1.27958 11.5951 2.75111 11.5951 5.15034C11.531 9.75686 11.5951 14.3634 11.5951 18.9699C11.5951 19.2258 11.7232 19.4818 11.8193 19.8656C13.8052 19.8656 15.7591 19.8016 17.713 19.8656C20.0512 19.9296 21.2363 21.0812 21.3004 23.3845C21.3645 25.7517 21.3645 28.119 21.3004 30.4862C21.2363 32.4376 20.0832 33.5892 18.1614 33.8452C17.6489 33.9091 17.1364 33.9091 16.6239 33.9411C16.5278 35.3487 16.4317 36.5963 16.3036 38.3237C14.5739 36.9802 13.2286 35.9565 11.6271 34.7089C11.6271 38.5476 11.499 42.0345 11.6912 45.5214C11.7873 47.4408 13.1646 48.6564 15.0864 48.6884C21.7168 48.7844 28.3472 48.7524 35.0096 48.7204C36.7392 48.7204 38.2447 47.6647 38.3728 46.0013C38.629 42.4824 38.4368 38.8995 38.4368 35.0608C35.9705 35.1247 33.7924 35.2207 31.1018 35.3487ZM15.3747 32.7575C16.0474 32.6935 16.4958 32.6295 16.9762 32.6295C19.6028 32.5336 20.1153 32.0217 20.1153 29.3346C20.1153 27.4472 20.1153 25.5598 20.1153 23.6404C20.1153 22.0089 19.3786 21.0812 17.6809 21.0812C13.0044 21.0812 8.32794 21.0812 3.65146 21.0812C1.95383 21.0812 1.21712 22.0089 1.21712 23.6404C1.21712 25.3999 1.21712 27.1593 1.21712 28.9187C1.21712 32.3096 1.56946 32.6935 4.93269 32.5976C8.55216 32.5016 12.1396 32.2457 14.7341 35.5086C14.7982 35.5726 14.9903 35.5086 15.1825 35.5086C15.2786 34.6449 15.3106 33.8132 15.3747 32.7575ZM31.4862 30.4222C31.7745 31.4459 32.1588 32.6935 32.4471 33.6852C35.49 33.9091 38.2126 34.1011 41.0954 34.325C40.2946 31.3819 39.4939 28.4069 38.7251 25.5598C36.2267 27.2233 33.9525 28.7588 31.4862 30.4222ZM30.1729 30.4222C28.6995 30.8061 27.2901 30.9661 26.1691 31.6059C25.5605 31.9578 24.9839 33.1734 25.1441 33.8452C25.3042 34.485 26.4253 35.3807 27.0659 35.3487C28.4753 35.2847 29.8526 34.7089 31.262 34.325C30.8776 32.8855 30.5573 31.7978 30.1729 30.4222ZM39.9103 22.2649C39.654 22.3288 39.4298 22.3928 39.1736 22.4568C40.4548 27.2233 41.736 31.9897 43.0172 36.7562C43.2735 36.6922 43.4977 36.6283 43.754 36.5643C42.4727 31.7978 41.1915 27.0313 39.9103 22.2649ZM29.8526 35.8925C29.5964 36.0844 29.3081 36.2764 29.0518 36.4363C29.9167 37.8119 30.8135 39.1874 31.6784 40.563C31.9026 40.4031 32.1588 40.2431 32.383 40.0832C31.5502 38.7076 30.6854 37.3 29.8526 35.8925Z" fill="white"/>
<path d="M48.9109 33.5573C47.8219 32.9175 46.7328 32.2777 45.6438 31.6379C45.804 31.35 45.9641 31.0621 46.1243 30.8062C47.2133 31.414 48.3344 32.0218 49.4234 32.6296C49.2312 32.9175 49.0711 33.2374 48.9109 33.5573Z" fill="white"/>
<path d="M43.9781 25.4639C44.6508 24.4082 45.2914 23.3845 45.9641 22.3289C46.2203 22.4888 46.5086 22.6807 46.7648 22.8407C46.0922 23.8964 45.4516 24.92 44.7789 25.9757C44.5227 25.8157 44.2664 25.6238 43.9781 25.4639Z" fill="white"/>
<path d="M46.1562 27.7351C47.3414 27.4152 48.5265 27.0953 49.7437 26.7754C49.8398 27.0633 49.9359 27.3832 49.9999 27.6711C48.8148 28.023 47.6297 28.3749 46.4445 28.6948C46.3484 28.4069 46.2523 28.055 46.1562 27.7351Z" fill="white"/>
<path d="M25.016 4.19061C27.0339 4.19061 29.0839 4.15862 31.1018 4.19061C33.2799 4.2226 34.2729 5.11831 34.3049 7.22964C34.369 9.72484 34.369 12.22 34.3049 14.7152C34.2408 16.7626 33.344 17.7223 31.326 17.7543C27.13 17.8182 22.934 17.8182 18.77 17.7543C16.72 17.7223 15.8232 16.7626 15.7591 14.7472C15.695 12.252 15.695 9.75683 15.7591 7.26163C15.8232 5.1503 16.7841 4.25459 18.9301 4.2226C20.9801 4.19061 22.9981 4.19061 25.016 4.19061ZM24.984 5.43821C23.0301 5.43821 21.0442 5.4702 19.0903 5.43821C17.6489 5.40622 16.9442 6.01403 16.9442 7.48555C16.9442 9.8528 16.9442 12.22 16.9442 14.5873C16.9442 15.8989 17.5208 16.6346 18.8981 16.6346C22.966 16.6346 27.0019 16.6346 31.0698 16.6346C32.5432 16.6346 33.1198 15.8989 33.1198 14.4913C33.0877 12.188 33.0877 9.88479 33.1198 7.61351C33.1518 6.04602 32.4151 5.43821 30.8776 5.4702C28.9237 5.4702 26.9699 5.43821 24.984 5.43821Z" fill="white"/>
<path d="M27.8667 45.9053C26.1691 45.9053 24.5035 45.9053 22.6136 45.9053C24.055 44.4338 27.194 44.5618 27.8667 45.9053Z" fill="white"/>
<path d="M17.4247 24.3123C12.9404 24.3123 8.45613 24.3123 3.87573 24.3123C4.70853 23.0967 15.6951 22.8727 17.4247 24.3123Z" fill="white"/>
<path d="M3.77954 27.1273C4.93265 25.8797 16.0793 25.7837 17.809 27.1273C12.9403 27.1273 8.424 27.1273 3.77954 27.1273Z" fill="white"/>
<path d="M3.42725 30.0063C5.253 28.7267 10.2498 28.7587 11.6591 30.0063C8.9045 30.0063 6.43814 30.0063 3.42725 30.0063Z" fill="white"/>
<path d="M22.2292 10.5886C22.8699 9.69288 23.9269 7.93345 24.055 7.99743C25.6565 8.79717 27.226 9.78885 28.5713 10.9725C29.0198 11.3564 25.2722 14.1715 24.087 14.1715C22.966 14.1395 22.7097 13.5317 22.2292 10.5886ZM23.9909 13.0518C25.3042 12.2521 26.2972 11.6762 27.4823 10.9725C26.2011 10.2687 25.2081 9.69288 23.9909 9.0211C23.9909 10.4286 23.9909 11.4843 23.9909 13.0518Z" fill="white"/>
</g>
<defs>
<clipPath id="clip0_6_215">
<rect width="50" height="50" fill="white"/>
</clipPath>
</defs>
</svg>
