<svg width="50" height="40" viewBox="0 0 50 40" fill="none" xmlns="http://www.w3.org/2000/svg">
<g clip-path="url(#clip0_6_240)">
<path d="M22.973 39.9999C17.3219 39.9999 11.6708 39.9999 6.01966 39.9999C1.92465 39.9593 0 38.0526 0 33.9958C0 24.0567 0 14.1175 0 4.17835C0 0.892349 0.859951 0.0404214 4.1769 0.0404214C7.94431 -0.000146526 11.7117 0.0809894 15.4791 -0.000146525C17.8133 -0.0407145 19.3284 0.85178 19.697 3.12359C19.9836 4.82744 20.8845 5.11142 22.4406 5.11142C28.3374 5.03028 34.1933 5.07085 40.0901 5.07085C43.407 5.07085 44.5946 6.00391 45.864 9.12764C46.0688 9.65503 46.724 10.1013 47.2563 10.3853C49.7134 11.6023 50.4095 12.9005 49.8772 15.6591C48.6487 22.15 47.3792 28.6003 46.1507 35.0911C45.4955 38.6205 43.8984 39.9999 40.172 39.9999C34.439 40.0404 28.706 39.9999 22.973 39.9999ZM22.8911 37.8092C28.706 37.8092 34.5209 37.7281 40.2948 37.8498C42.7109 37.8903 43.8165 36.9978 44.226 34.6449C45.2907 28.438 46.5192 22.2717 47.7068 16.1053C48.362 12.7788 47.8297 12.008 44.4308 12.008C32.9648 11.9674 21.5397 11.9674 10.0737 11.9674C6.83866 11.9674 6.38821 12.3731 5.77396 15.6185C4.62736 21.7037 3.4398 27.8295 2.2932 33.9147C1.76085 36.795 2.5389 37.8092 5.48731 37.8498C11.3022 37.8498 17.0762 37.8092 22.8911 37.8092ZM1.92465 23.5293C2.2113 23.367 2.33415 23.3264 2.33415 23.2859C2.8665 20.6084 3.39885 17.9309 3.89025 15.2534C4.6683 11.0749 5.89681 10.0607 10.1966 10.0607C20.5569 10.0607 30.9173 10.0607 41.2776 10.0607C42.0966 10.0607 42.9156 9.97957 43.8984 9.939C43.5708 7.42379 42.0147 6.93697 40.0491 6.93697C33.8657 6.93697 27.6413 6.81527 21.4578 6.97754C19.2875 7.01811 18.4275 6.32845 17.9771 4.34062C17.7723 3.44813 16.7486 2.06882 16.0115 2.02825C11.8346 1.82541 7.69861 1.90655 3.5217 2.02825C2.98935 2.02825 2.00655 2.96131 2.00655 3.4887C1.8837 10.1013 1.92465 16.7544 1.92465 23.5293Z" fill="white"/>
<path d="M22.072 32.2516C23.4643 27.0995 24.7338 22.3124 26.0851 17.5254C26.208 17.1197 26.9041 16.8358 27.3546 16.5112C27.5184 16.9575 27.9688 17.4849 27.846 17.8905C26.6175 22.7587 25.3071 27.6268 23.9557 32.495C23.8329 32.9007 23.2186 33.1441 22.8091 33.4281C22.5634 32.9818 22.2358 32.495 22.072 32.2516Z" fill="white"/>
<path d="M16.6258 24.9493C17.6905 26.3286 18.8371 27.5862 19.7789 29.0061C20.0656 29.4524 19.9427 30.1826 19.9837 30.7911C19.4104 30.5477 18.8371 30.3854 18.2638 30.1015C18.059 30.0203 17.9771 29.7363 17.8133 29.5741C13.5955 24.4625 13.5955 24.4625 18.3457 19.7566C18.7142 19.3915 19.4923 19.3915 20.0656 19.2292C19.9837 19.7972 20.1065 20.4463 19.8199 20.852C18.878 22.2313 17.7314 23.5295 16.6258 24.9493Z" fill="white"/>
<path d="M33.4972 24.9493C32.3506 23.5295 31.2449 22.2313 30.2621 20.852C29.9755 20.4463 30.0574 19.7566 29.9755 19.2292C30.5488 19.3915 31.163 19.5538 31.7363 19.7566C31.9411 19.8378 32.023 20.1217 32.1868 20.284C36.4046 25.1522 36.3637 25.8013 31.6544 30.2637C31.2859 30.5883 30.6307 30.6288 30.0983 30.7911C30.1393 30.1826 30.0164 29.4524 30.3031 29.0061C31.2859 27.5862 32.4325 26.3286 33.4972 24.9493Z" fill="white"/>
</g>
<defs>
<clipPath id="clip0_6_240">
<rect width="50" height="40" fill="white"/>
</clipPath>
</defs>
</svg>
