<svg width="50" height="51" viewBox="0 0 50 51" fill="none" xmlns="http://www.w3.org/2000/svg">
<g clip-path="url(#clip0_6_247)">
<path d="M15.3355 42.6171C15.3355 44.7948 15.302 47.0061 15.3691 49.1838C15.4026 50.457 14.9328 50.9596 13.6241 50.9261C10.9395 50.859 8.25498 50.926 5.57041 50.8925C3.72477 50.859 0.0670562 47.1066 0.0670562 45.2639C0.0334991 42.081 0.100613 38.8982 0.0334991 35.7153C-5.79171e-05 34.3081 0.570412 33.8726 1.91269 33.9061C5.7382 33.9731 9.5637 34.0066 13.3892 33.9061C15.0671 33.8726 15.4362 34.5426 15.4026 36.0503C15.2684 38.2281 15.3355 40.4393 15.3355 42.6171ZM13.4899 49.1503C13.4899 44.5938 13.4899 40.2048 13.4899 35.8158C9.49659 35.8158 5.67108 35.8158 1.84558 35.8158C1.84558 38.9652 1.84558 41.9805 1.84558 45.0294C3.3892 44.8283 4.83216 44.6608 6.54357 44.4598C6.30867 46.269 6.14088 47.6762 5.9731 49.1838C8.52343 49.1503 10.906 49.1503 13.4899 49.1503Z" fill="white"/>
<path d="M20.7047 3.21645C21.1745 2.7809 22.1812 2.27835 22.4832 1.54126C23.0536 0.0335844 24.0939 -0.0334235 25.3691 8.04286e-05C26.6778 0.0335843 28.0201 -0.301455 28.6912 1.50776C28.9597 2.21134 30.302 3.04893 31.0067 2.91492C32.953 2.57988 33.4563 3.88653 34.161 5.09267C34.8322 6.1983 35.1677 7.10291 34.1946 8.34255C33.7248 8.91212 33.7583 10.4868 34.2281 11.0229C35.5704 12.5975 34.4295 13.6362 33.8255 14.8088C33.2214 15.9814 32.5503 16.752 30.9731 16.417C30.302 16.283 28.9597 17.1541 28.6912 17.8577C28.0536 19.4993 26.8456 19.3988 25.5704 19.3988C24.2953 19.4323 23.1543 19.4323 22.4832 17.8577C22.1812 17.1541 20.8389 16.417 20.0335 16.5175C18.4228 16.685 17.8859 15.7469 17.2818 14.7083C16.6442 13.5692 15.6711 12.5975 16.9463 11.0899C17.4161 10.5203 17.4832 8.91212 17.0134 8.37605C15.7718 6.93539 16.6107 5.93027 17.2483 4.75763C17.8859 3.585 18.5234 2.47937 20.7047 3.21645ZM26.6442 17.7236C27.6845 15.2444 29.3624 14.2727 32.0134 14.5743C32.3489 13.9377 32.7181 13.2676 33.0536 12.631C31.4429 10.8553 31.4093 8.87861 32.953 6.46633C32.6174 5.89677 32.2483 5.3272 31.8791 4.75763C29.5302 5.22669 27.7181 4.18807 26.5436 1.74228C25.8724 1.74228 25.1677 1.74228 24.4966 1.74228C23.4899 4.12106 21.7114 5.15968 19.161 4.79114C18.8255 5.3607 18.4899 5.96377 18.1208 6.56684C18.3221 6.56684 18.557 6.56684 18.7583 6.56684C18.859 8.20853 19.5637 10.2523 18.859 11.4584C17.953 13.0331 18.557 13.6697 19.2617 14.6413C21.6442 14.2057 23.3892 15.2108 24.5637 17.6901C25.2349 17.7236 25.8724 17.7236 26.6442 17.7236Z" fill="white"/>
<path d="M42.2147 31.3933C44.2281 31.4603 46.2751 32.4989 47.6174 34.7772C48.9261 37.0555 48.6241 39.3002 47.4832 41.612C46.5436 43.5217 45.8053 45.5655 45.2684 47.6427C44.765 49.6194 43.6241 50.8926 41.7449 50.9261C39.8657 50.9596 38.3221 49.7534 38.1879 47.7432C38.0201 45.3309 37.114 43.3207 35.8389 41.3105C33.1208 36.9885 36.4429 31.4603 42.2147 31.3933ZM42.2483 45.0964C43.1543 44.9289 43.5906 44.9959 43.6577 44.8284C44.6644 42.9857 45.8053 41.1764 46.5771 39.2332C47.3489 37.3235 46.3087 35.1122 44.4966 33.9396C42.6174 32.7335 40.2684 32.834 38.5234 34.1406C36.812 35.4473 36.0738 37.692 36.9127 39.6018C37.6845 41.344 38.6241 42.9857 39.5973 44.6274C39.7315 44.8619 40.2684 44.8619 41.208 45.1299C40.7382 43.2537 40.3691 41.813 39.8993 40.0373C40.6711 39.9033 41.7785 39.6353 42.8523 39.5683C43.1543 39.5683 43.5234 40.1713 43.859 40.4729C43.6577 40.4729 43.4899 40.4729 43.2885 40.4729C42.9865 41.9135 42.651 43.3207 42.2483 45.0964ZM39.9328 46.7381C39.765 48.5473 40.4697 49.4184 42.0805 49.1504C43.4228 48.9158 43.6912 47.9442 43.3892 46.7381C42.1476 46.7381 41.1073 46.7381 39.9328 46.7381Z" fill="white"/>
<path d="M12.6845 16.4505C11.3423 15.5459 10.5369 15.0098 9.53018 14.3063C6.64427 18.5277 5.53689 23.1178 6.17447 28.1099C6.27514 28.8134 6.57716 29.517 6.51004 30.1871C6.47649 30.6897 6.04024 31.1587 5.50333 31.5273C3.28857 24.9605 4.42951 19.0303 8.02011 13.4687C7.98655 13.3346 7.98655 13.1671 7.88588 13.0666C5.23488 10.6208 5.23488 10.6208 8.65769 9.48169C13.4228 7.87351 13.4228 7.87351 13.1543 12.8991C13.1208 13.9042 12.9194 14.9093 12.6845 16.4505ZM11.4094 13.5357C11.4094 12.1955 11.4094 11.3914 11.4094 10.3863C10.4698 10.6878 9.69796 10.9559 8.59058 11.3244C9.63085 12.1285 10.302 12.6646 11.4094 13.5357Z" fill="white"/>
<path d="M46.6442 22.7158C50.7382 23.2184 50.7717 23.2184 48.4563 26.6693C47.7516 27.7079 47.0133 28.713 45.9395 30.2542C44.4294 27.9759 43.1207 26.0327 41.9127 24.0225C41.812 23.8885 42.3825 23.0844 42.7516 22.9839C43.3221 22.7828 43.9932 22.9504 44.8657 22.9504C44.2281 17.7908 41.9127 13.7703 38.1207 10.5539C37.3153 9.88384 36.7113 9.31427 38.1207 8.40967C42.9529 11.9946 45.7382 16.8527 46.6442 22.7158ZM45.9731 27.3059C46.6442 26.2672 47.0805 25.5637 47.5838 24.7596C46.3422 24.7596 45.4026 24.7596 44.2617 24.7596C44.8657 25.6642 45.3355 26.3343 45.9731 27.3059Z" fill="white"/>
<path d="M34.161 45.2638C31.51 45.7329 28.9261 46.4029 26.2751 46.604C24.6979 46.7045 23.7919 47.0395 23.557 48.6812C23.4898 49.1838 23.1207 49.6193 22.6509 50.5239C20.9395 48.5472 19.463 46.872 18.1207 45.1298C17.9194 44.8953 18.1878 43.8901 18.4563 43.7896C20.5368 43.019 22.6845 42.3825 25.2348 41.5784C25.1006 42.952 24.9999 43.8231 24.8321 45.2973C27.416 44.7612 29.9328 44.3592 32.3489 43.7226C33.3892 43.4546 34.1274 43.2201 34.161 45.2638ZM20.0335 44.9958C20.8724 45.9004 21.4093 46.5034 22.1811 47.341C22.5167 45.9674 22.7516 45.1298 23.02 43.9907C21.9798 44.3592 21.208 44.5937 20.0335 44.9958Z" fill="white"/>
<path d="M3.75835 37.3904C6.3758 37.3904 8.99325 37.3904 11.6778 37.3904C12.1476 38.4625 12.0469 39.0656 10.6375 39.0656C8.65768 39.0321 6.67781 39.1326 4.69795 38.9986C4.19459 38.9651 3.72479 38.362 3.22144 38.027C3.42278 37.7924 3.59056 37.5914 3.75835 37.3904Z" fill="white"/>
<path d="M3.22144 42.7176C3.62412 42.349 4.0268 41.679 4.46305 41.6455C6.57714 41.5449 8.72479 41.5449 10.8389 41.6455C11.2751 41.679 11.7114 42.3155 12.1476 42.6506C12.0469 42.8181 11.9127 43.0191 11.812 43.1866C9.12748 43.1866 6.47647 43.1866 3.79191 43.1866C3.59056 43.0191 3.42278 42.8516 3.22144 42.7176Z" fill="white"/>
<path d="M8.65771 45.934C11.8121 45.7329 11.8121 45.7329 11.6778 47.3746C8.69127 47.7097 8.69127 47.7097 8.65771 45.934Z" fill="white"/>
<path d="M25.5704 5.46118C27.8858 5.46118 29.7315 7.27039 29.7986 9.58216C29.8322 11.8939 27.8523 13.9377 25.5369 13.9042C23.2214 13.8707 21.2416 11.8604 21.3087 9.51515C21.3758 7.23689 23.2214 5.46118 25.5704 5.46118ZM28.1207 9.51515C27.8187 8.2085 27.1476 7.16988 25.5033 7.20338C23.9932 7.23689 23.1207 8.10799 23.0536 9.54866C22.9865 11.1233 23.9597 12.095 25.5033 12.162C27.0134 12.1955 27.8858 11.2239 28.1207 9.51515Z" fill="white"/>
</g>
<defs>
<clipPath id="clip0_6_247">
<rect width="50" height="50.9259" fill="white"/>
</clipPath>
</defs>
</svg>
