<svg width="40" height="50" viewBox="0 0 40 50" fill="none" xmlns="http://www.w3.org/2000/svg">
<g clip-path="url(#clip0_6_259)">
<path d="M20.7492 40.4001C20.7492 36.8045 20.7492 33.5141 20.7492 30.0541C18.3983 30.0541 16.1496 30.0541 13.5943 30.0541C13.5943 32.2251 13.6624 34.3621 13.5602 36.4992C13.5261 37.1437 13.015 37.7542 12.7084 38.3648C12.4699 37.7882 12.027 37.2115 12.027 36.6009C11.9588 33.4462 11.9248 30.2916 12.027 27.1369C12.0611 26.1871 12.8788 25.2373 12.7766 24.3553C12.504 22.354 12.1292 20.2848 11.2774 18.4869C10.6982 17.2997 10.3916 16.4856 11.1411 15.4001C12.6403 13.2291 14.0712 10.9903 15.6044 8.81938C16.6606 7.29292 17.8531 7.39468 18.8753 8.88722C20.4085 11.126 22.0098 13.3648 23.3726 15.7054C23.7474 16.3499 23.6111 17.6389 23.2023 18.3513C21.8394 20.7597 20.9877 22.9646 22.2824 25.8139C22.8956 27.2047 22.4868 29.0704 22.4868 30.6986C22.4868 33.8533 22.4868 37.008 22.4868 40.2305C24.2244 40.468 25.2465 39.7217 25.1443 38.1952C24.8717 33.4462 26.8819 29.7488 29.7439 26.0853C33.5598 21.2346 33.7302 15.6715 31.1067 10.0405C30.8001 9.39604 30.9364 8.58193 30.8682 7.83566C31.4474 8.3784 32.2311 8.78545 32.5377 9.42996C35.6382 16.0107 34.9908 22.3201 30.3572 27.951C27.9381 30.8682 26.6775 33.9551 26.6775 37.7542C26.6775 38.9754 25.8598 40.5019 24.9058 41.3499C24.02 42.1301 23.7133 42.7746 23.7474 43.8262C23.7815 44.742 23.7815 45.6918 23.7133 46.6077C23.543 48.6091 22.3505 49.7963 20.3744 49.932C18.2961 50.0677 16.1837 50.0338 14.1053 49.9659C12.0611 49.8642 10.8004 48.5412 10.6642 46.5399C10.596 45.7597 10.596 44.9456 10.6642 44.1654C10.7664 42.8764 10.4938 42.0283 9.23317 41.1803C8.3814 40.6376 7.69998 39.145 7.69998 38.1274C7.76812 34.0229 6.30307 30.7325 3.6796 27.5779C-1.87396 20.7936 -1.02219 10.8207 5.38315 4.7149C11.6863 -1.28917 21.6009 -1.59446 28.2448 3.96863C28.5173 4.20608 28.8581 4.40961 29.0284 4.7149C29.301 5.22372 29.4373 5.80038 29.6417 6.34312C29.0965 6.20744 28.3811 6.24136 28.0063 5.90214C24.7355 2.95099 20.9536 1.42453 16.5584 1.66198C10.3916 2.00119 5.86015 4.95235 3.23668 10.4476C0.545074 16.0446 1.02207 21.6077 4.94023 26.4245C7.76812 29.8845 9.50574 33.4802 9.33539 37.9578C9.26724 39.4164 10.0509 40.3323 11.5159 40.3662C14.4801 40.434 17.5124 40.4001 20.7492 40.4001ZM16.3881 11.1599C16.2177 11.0921 16.0474 11.0243 15.8429 10.9903C14.8208 12.6186 13.7646 14.2129 12.7425 15.875C12.5381 16.2142 12.2996 16.757 12.4358 17.0623C13.0491 18.4191 13.492 20.0134 14.5142 20.9632C15.1615 21.5738 16.6947 21.2346 17.8191 21.3024C17.9553 21.3024 18.0916 21.3024 18.262 21.3024C19.8633 21.2685 22.5549 17.7068 21.8054 16.316C20.8514 14.4842 19.5907 12.7882 18.4664 11.0243C18.0235 13.0256 18.0576 14.7895 17.9553 16.5874C17.9213 17.0962 17.4102 17.5711 17.1376 18.046C16.8651 17.5372 16.4221 17.0283 16.3881 16.5195C16.3199 14.7217 16.3881 12.9239 16.3881 11.1599ZM12.5381 45.4544C12.1633 47.3879 12.8447 48.2359 14.3438 48.2699C16.2177 48.3377 18.0916 48.3038 19.9315 48.3038C21.3284 48.3038 22.0779 47.5575 22.112 46.2007C22.1801 44.8777 22.112 43.5209 22.112 41.9944C19.0456 41.9944 16.2859 41.9266 13.492 42.0623C12.981 42.0962 12.5381 42.9781 11.8907 43.6905C15.1615 44.6742 18.0916 43.2834 20.6129 44.7081C20.6129 44.9795 20.6129 45.2169 20.5788 45.4883C17.9213 45.4544 15.1956 45.4544 12.5381 45.4544ZM13.8328 26.3228C13.3558 27.7814 13.7305 28.4259 15.2637 28.358C16.6266 28.2902 17.9894 28.3241 19.3523 28.358C21.0217 28.392 21.0217 27.5439 20.6129 26.3228C18.262 26.3228 16.0474 26.3228 13.8328 26.3228ZM20.3062 24.491C19.0115 21.8791 16.9673 23.2359 15.4682 22.9646C15.1956 22.8967 14.7527 23.7108 14.0372 24.491C16.4562 24.491 18.0576 24.491 20.3062 24.491Z" fill="white"/>
<path d="M33.3895 2.13687C32.6059 2.8153 32.0267 3.35804 31.3793 3.83294C31.3112 3.86686 30.8683 3.39196 30.5957 3.15451C31.1408 2.57785 31.6519 1.93335 32.2311 1.42453C32.2652 1.32276 32.7762 1.76374 33.3895 2.13687Z" fill="white"/>
<path d="M37.887 16.4856C38.4321 16.8927 38.841 17.1979 39.2157 17.5032C38.7387 17.8085 38.2617 18.3513 37.7848 18.3513C37.3078 18.3513 36.7967 17.8424 36.3197 17.5372C36.7967 17.1979 37.2737 16.8927 37.887 16.4856Z" fill="white"/>
</g>
<defs>
<clipPath id="clip0_6_259">
<rect width="39.2157" height="50" fill="white"/>
</clipPath>
</defs>
</svg>
