<svg width="148" height="28" viewBox="0 0 148 28" fill="none" xmlns="http://www.w3.org/2000/svg">
<path d="M12.989 2.91361C13.287 1.99653 14.5844 1.99653 14.8824 2.91361L16.841 8.94153C16.9742 9.35166 17.3564 9.62934 17.7877 9.62934H24.1258C25.0901 9.62934 25.491 10.8633 24.7109 11.43L19.5832 15.1555C19.2344 15.409 19.0884 15.8583 19.2216 16.2684L21.1802 22.2963C21.4782 23.2134 20.4286 23.976 19.6485 23.4092L14.5208 19.6838C14.1719 19.4303 13.6995 19.4303 13.3506 19.6838L8.22297 23.4092C7.44286 23.976 6.39322 23.2134 6.6912 22.2963L8.64978 16.2684C8.78304 15.8583 8.63706 15.409 8.28818 15.1555L3.16053 11.4301C2.38041 10.8633 2.78134 9.62934 3.74561 9.62934H10.0837C10.515 9.62934 10.8972 9.35166 11.0304 8.94153L12.989 2.91361Z" fill="#04645D"/>
<path d="M42.8605 2.91361C43.1584 1.99653 44.4559 1.99653 44.7538 2.91361L46.7124 8.94153C46.8457 9.35166 47.2279 9.62934 47.6591 9.62934H53.9972C54.9615 9.62934 55.3624 10.8633 54.5823 11.43L49.4547 15.1555C49.1058 15.409 48.9598 15.8583 49.0931 16.2684L51.0517 22.2963C51.3496 23.2134 50.3 23.976 49.5199 23.4092L44.3922 19.6838C44.0433 19.4303 43.5709 19.4303 43.2221 19.6838L38.0944 23.4092C37.3143 23.976 36.2646 23.2134 36.5626 22.2963L38.5212 16.2684C38.6545 15.8583 38.5085 15.409 38.1596 15.1555L33.032 11.4301C32.2518 10.8633 32.6528 9.62934 33.617 9.62934H39.9552C40.3864 9.62934 40.7686 9.35166 40.9019 8.94153L42.8605 2.91361Z" fill="#04645D"/>
<path d="M72.7319 2.91361C73.0299 1.99653 74.3273 1.99653 74.6253 2.91361L76.5838 8.94153C76.7171 9.35166 77.0993 9.62934 77.5305 9.62934H83.8687C84.8329 9.62934 85.2339 10.8633 84.4538 11.43L79.3261 15.1555C78.9772 15.409 78.8312 15.8583 78.9645 16.2684L80.9231 22.2963C81.2211 23.2134 80.1714 23.976 79.3913 23.4092L74.2637 19.6838C73.9148 19.4303 73.4424 19.4303 73.0935 19.6838L67.9658 23.4092C67.1857 23.976 66.1361 23.2134 66.4341 22.2963L68.3926 16.2684C68.5259 15.8583 68.3799 15.409 68.031 15.1555L62.9034 11.4301C62.1233 10.8633 62.5242 9.62934 63.4885 9.62934H69.8266C70.2578 9.62934 70.64 9.35166 70.7733 8.94153L72.7319 2.91361Z" fill="#04645D"/>
<path d="M102.603 2.91361C102.901 1.99653 104.199 1.99653 104.497 2.91361L106.455 8.94153C106.589 9.35166 106.971 9.62934 107.402 9.62934H113.74C114.704 9.62934 115.105 10.8633 114.325 11.43L109.197 15.1555C108.849 15.409 108.703 15.8583 108.836 16.2684L110.794 22.2963C111.092 23.2134 110.043 23.976 109.263 23.4092L104.135 19.6838C103.786 19.4303 103.314 19.4303 102.965 19.6838L97.8372 23.4092C97.0571 23.976 96.0075 23.2134 96.3055 22.2963L98.264 16.2684C98.3973 15.8583 98.2513 15.409 97.9024 15.1555L92.7748 11.4301C91.9947 10.8633 92.3956 9.62934 93.3599 9.62934H99.698C100.129 9.62934 100.511 9.35166 100.645 8.94153L102.603 2.91361Z" fill="#C8C8C8"/>
<path d="M132.475 2.91361C132.773 1.99653 134.07 1.99653 134.368 2.91361L136.327 8.94153C136.46 9.35166 136.842 9.62934 137.273 9.62934H143.611C144.576 9.62934 144.977 10.8633 144.197 11.43L139.069 15.1555C138.72 15.409 138.574 15.8583 138.707 16.2684L140.666 22.2963C140.964 23.2134 139.914 23.976 139.134 23.4092L134.006 19.6838C133.658 19.4303 133.185 19.4303 132.836 19.6838L127.709 23.4092C126.929 23.976 125.879 23.2134 126.177 22.2963L128.135 16.2684C128.269 15.8583 128.123 15.409 127.774 15.1555L122.646 11.4301C121.866 10.8633 122.267 9.62934 123.231 9.62934H129.569C130.001 9.62934 130.383 9.35166 130.516 8.94153L132.475 2.91361Z" fill="#C8C8C8"/>
</svg>
