<svg width="149" height="29" viewBox="0 0 149 29" fill="none" xmlns="http://www.w3.org/2000/svg">
<path d="M13.8104 3.38749C14.1084 2.47041 15.4058 2.47041 15.7038 3.38749L17.6624 9.41541C17.7957 9.82554 18.1779 10.1032 18.6091 10.1032H24.9472C25.9115 10.1032 26.3124 11.3371 25.5323 11.9039L20.4047 15.6294C20.0558 15.8829 19.9098 16.3322 20.043 16.7423L22.0016 22.7702C22.2996 23.6873 21.25 24.4499 20.4699 23.8831L15.3422 20.1576C14.9933 19.9042 14.5209 19.9042 14.172 20.1576L9.04438 23.8831C8.26427 24.4499 7.21463 23.6873 7.51261 22.7702L9.4712 16.7423C9.60446 16.3322 9.45847 15.8829 9.10959 15.6294L3.98194 11.9039C3.20182 11.3371 3.60275 10.1032 4.56702 10.1032H10.9052C11.3364 10.1032 11.7186 9.82554 11.8518 9.41541L13.8104 3.38749Z" fill="#04645D"/>
<path d="M43.6818 3.38749C43.9798 2.47041 45.2772 2.47041 45.5752 3.38749L47.5338 9.41541C47.6671 9.82554 48.0493 10.1032 48.4805 10.1032H54.8186C55.7829 10.1032 56.1838 11.3371 55.4037 11.9039L50.2761 15.6294C49.9272 15.8829 49.7812 16.3322 49.9144 16.7423L51.873 22.7702C52.171 23.6873 51.1214 24.4499 50.3413 23.8831L45.2136 20.1576C44.8647 19.9042 44.3923 19.9042 44.0434 20.1576L38.9158 23.8831C38.1357 24.4499 37.086 23.6873 37.384 22.7702L39.3426 16.7423C39.4759 16.3322 39.3299 15.8829 38.981 15.6294L33.8533 11.9039C33.0732 11.3371 33.4741 10.1032 34.4384 10.1032H40.7766C41.2078 10.1032 41.59 9.82554 41.7232 9.41541L43.6818 3.38749Z" fill="#04645D"/>
<path d="M73.5533 3.38749C73.8513 2.47041 75.1487 2.47041 75.4467 3.38749L77.4053 9.41541C77.5385 9.82554 77.9207 10.1032 78.3519 10.1032H84.6901C85.6544 10.1032 86.0553 11.3371 85.2752 11.9039L80.1475 15.6294C79.7986 15.8829 79.6526 16.3322 79.7859 16.7423L81.7445 22.7702C82.0425 23.6873 80.9928 24.4499 80.2127 23.8831L75.0851 20.1576C74.7362 19.9042 74.2638 19.9042 73.9149 20.1576L68.7872 23.8831C68.0071 24.4499 66.9575 23.6873 67.2555 22.7702L69.2141 16.7423C69.3473 16.3322 69.2013 15.8829 68.8525 15.6294L63.7248 11.9039C62.9447 11.3371 63.3456 10.1032 64.3099 10.1032H70.648C71.0792 10.1032 71.4614 9.82554 71.5947 9.41541L73.5533 3.38749Z" fill="#04645D"/>
<path d="M103.425 3.38749C103.723 2.47041 105.02 2.47041 105.318 3.38749L107.277 9.41541C107.41 9.82554 107.792 10.1032 108.223 10.1032H114.561C115.526 10.1032 115.927 11.3371 115.147 11.9039L110.019 15.6294C109.67 15.8829 109.524 16.3322 109.657 16.7423L111.616 22.7702C111.914 23.6873 110.864 24.4499 110.084 23.8831L104.956 20.1576C104.608 19.9042 104.135 19.9042 103.786 20.1576L98.6586 23.8831C97.8785 24.4499 96.8289 23.6873 97.1269 22.7702L99.0855 16.7423C99.2187 16.3322 99.0727 15.8829 98.7239 15.6294L93.5962 11.9039C92.8161 11.3371 93.217 10.1032 94.1813 10.1032H100.519C100.951 10.1032 101.333 9.82554 101.466 9.41541L103.425 3.38749Z" fill="#04645D"/>
<path d="M133.296 3.38749C133.594 2.47041 134.892 2.47041 135.19 3.38749L137.148 9.41541C137.281 9.82554 137.664 10.1032 138.095 10.1032H144.433C145.397 10.1032 145.798 11.3371 145.018 11.9039L139.89 15.6294C139.541 15.8829 139.396 16.3322 139.529 16.7423L141.487 22.7702C141.785 23.6873 140.736 24.4499 139.956 23.8831L134.828 20.1576C134.479 19.9042 134.007 19.9042 133.658 20.1576L128.53 23.8831C127.75 24.4499 126.7 23.6873 126.998 22.7702L128.957 16.7423C129.09 16.3322 128.944 15.8829 128.595 15.6294L123.468 11.9039C122.688 11.3371 123.088 10.1032 124.053 10.1032H130.391C130.822 10.1032 131.204 9.82554 131.338 9.41541L133.296 3.38749Z" fill="#04645D"/>
</svg>
