<svg width="60" height="60" viewBox="0 0 60 60" fill="none" xmlns="http://www.w3.org/2000/svg">
<rect opacity="0.1" width="60" height="60" rx="4" fill="#23CC48"/>
<g clip-path="url(#clip0_53_8)">
<path d="M25.4156 35.1793C26.8916 33.3997 26.8916 33.3997 25.6001 30.0531C24.9676 30 24.3086 29.9469 23.4916 29.8672C23.4916 28.5126 23.4916 27.1846 23.4916 25.83C24.2823 25.7769 24.9412 25.6972 25.6792 25.6441C25.811 24.0239 28.104 22.4834 25.1257 20.5976C26.3381 19.6414 27.3661 18.818 28.5258 17.8884C28.9738 18.2603 29.4746 18.7118 30.0281 19.1899C30.9242 18.8446 31.8467 18.4993 32.7692 18.0743C33.0328 17.9681 33.3754 17.5697 33.3491 17.3572C33.0592 15.3121 34.4297 15.498 35.6949 15.5245C36.3011 15.5245 36.9073 15.6042 37.5662 15.6574C37.6189 16.4542 37.6716 17.1182 37.7243 17.8087C38.7786 18.2603 39.8065 18.7118 40.9399 19.1899C41.4143 18.7915 41.9678 18.3134 42.8376 17.5963C43.7601 18.6056 44.6562 19.5883 45.4469 20.4913C45.157 21.6069 43.5229 21.8991 44.4454 23.2802C45.1834 24.4223 45.1306 26.3612 47.5555 25.6441C47.5555 27.1315 47.5555 28.4595 47.5555 29.8937C46.0795 29.7609 45.3151 30.2921 44.6826 31.753C44.05 33.2404 44.3927 34.0372 45.7369 35.0996C44.6826 36.1354 43.7337 37.0651 42.7322 38.0478C42.0205 37.4369 41.5197 37.0119 40.9662 36.5073C39.912 36.9588 38.8313 37.4103 37.698 37.8884C37.6453 38.5524 37.5926 39.2164 37.5398 40.1461C36.4065 40.1461 35.2731 40.1992 34.1661 40.1195C33.8762 40.0929 33.3754 39.6414 33.4018 39.4555C33.639 37.915 32.6374 37.5431 31.5041 37.1713C31.0297 37.0119 30.5816 36.7463 30.0545 36.5073C29.5537 36.9323 29.0529 37.3838 28.5785 37.8087C28.4467 37.915 28.3149 38.0478 28.2095 38.154C27.287 37.1182 26.3381 36.1354 25.4156 35.1793ZM28.7893 27.8751C28.7893 31.6733 31.8467 34.7277 35.5894 34.6746C39.253 34.6215 42.2577 31.5936 42.3105 27.9017C42.3632 24.1832 39.253 21.0226 35.5367 21.0226C31.794 20.996 28.763 24.0504 28.7893 27.8751Z" fill="#23CC48"/>
<path d="M24.4405 41.4742C27.4189 41.4742 30.9243 41.5273 34.4298 41.4476C35.8531 41.4211 36.2748 41.8992 36.2748 43.3069C36.2485 46.9722 35.6422 47.7159 32.005 48.0877C31.9786 50.7172 29.9755 49.8673 28.5522 49.9204C27.0235 49.9735 26.9708 49.8673 26.6545 48.0877C26.2065 48.0346 25.7057 48.0081 25.2049 47.9549C23.4653 47.7159 22.2793 46.6535 22.4638 44.8739C22.8064 41.2617 21.3304 38.4729 19.3536 35.6309C13.6342 27.4503 17.904 16.7199 27.3398 14.9935C27.4452 14.9669 27.577 14.9138 27.6824 14.9403C28.4204 15.0997 29.1584 15.2856 29.8964 15.4716C29.2375 15.7372 28.6313 16.1621 27.946 16.2418C19.4327 17.437 15.4001 27.1581 20.2761 34.7013C21.6467 36.8261 22.9118 39.0041 24.4405 41.4742Z" fill="#23CC48"/>
<path d="M18.4575 18.2869C17.7459 17.3839 17.1397 16.6136 16.5862 15.8434C16.5598 15.8168 17.166 15.259 17.166 15.2856C17.8777 15.9496 18.5629 16.6402 19.2219 17.3839C19.2482 17.3839 18.8529 17.8088 18.4575 18.2869Z" fill="#23CC48"/>
<path d="M27.8142 11.6733C28.1832 11.0093 28.4731 10.5046 28.7631 10C29.0003 10.5312 29.422 11.0624 29.422 11.6202C29.422 12.178 29.0266 12.7092 28.7894 13.2669C28.4995 12.7623 28.1832 12.2842 27.8142 11.6733Z" fill="#23CC48"/>
<path d="M13.7396 28.8047C13.0806 28.486 12.5271 28.2204 12 27.9548C12.5271 27.6892 13.0543 27.2111 13.5551 27.2376C14.1349 27.2642 14.6884 27.7157 15.2683 27.9813C14.7938 28.2469 14.3194 28.5125 13.7396 28.8047Z" fill="#23CC48"/>
<path d="M20.3287 38.2337C19.3535 38.9774 18.5365 39.5883 17.7458 40.1992C17.5876 39.9602 17.245 39.5352 17.2977 39.4821C17.9303 38.7915 18.5892 38.1275 19.3008 37.5432C19.3799 37.4901 19.7752 37.8619 20.3287 38.2337Z" fill="#23CC48"/>
<path d="M35.8794 34.1966C34.7461 33.931 33.929 33.8779 33.2437 33.506C32.374 33.0545 31.0034 32.8951 31.2933 31.3812C31.5833 29.8141 33.3228 28.672 34.7724 28.9111C35.1942 28.9908 35.6686 29.0173 36.0903 28.9642C37.7508 28.7252 39.3586 29.7344 39.7012 31.3812C39.7803 31.753 39.5431 32.4436 39.2531 32.603C38.0934 33.267 36.8547 33.7451 35.8794 34.1966Z" fill="#23CC48"/>
<path d="M35.4577 28.3532C34.3243 28.247 33.56 27.6627 33.4546 26.3612C33.3755 25.166 34.3243 24.1036 35.484 24.1301C36.6965 24.1832 37.4608 24.9004 37.5926 26.1222C37.7244 27.2908 36.7228 28.3267 35.4577 28.3532Z" fill="#23CC48"/>
</g>
<defs>
<clipPath id="clip0_53_8">
<rect width="35.5556" height="40" fill="white" transform="translate(12 10)"/>
</clipPath>
</defs>
</svg>
