<svg width="60" height="60" viewBox="0 0 60 60" fill="none" xmlns="http://www.w3.org/2000/svg">
<rect opacity="0.1" width="60" height="60" rx="4" fill="#FF6853"/>
<g clip-path="url(#clip0_53_9)">
<path d="M21.9617 43.4739C21.9617 45.1844 21.9356 46.9212 21.9879 48.6318C22.0141 49.6318 21.6476 50.0265 20.6268 50.0002C18.5329 49.9476 16.4389 50.0002 14.345 49.9739C12.9054 49.9476 10.0523 47.0002 10.0523 45.5528C10.0262 43.0528 10.0785 40.5528 10.0262 38.0528C10 36.9476 10.445 36.6054 11.4919 36.6318C14.4758 36.6844 17.4597 36.7107 20.4436 36.6318C21.7523 36.6054 22.0403 37.1318 22.0141 38.316C21.9094 40.0265 21.9617 41.7633 21.9617 43.4739ZM20.5221 48.6054C20.5221 45.0265 20.5221 41.5791 20.5221 38.1318C17.4074 38.1318 14.4235 38.1318 11.4396 38.1318C11.4396 40.6054 11.4396 42.9739 11.4396 45.3686C12.6436 45.2107 13.7691 45.0791 15.104 44.9212C14.9208 46.3423 14.7899 47.4476 14.6591 48.6318C16.6483 48.6054 18.5067 48.6054 20.5221 48.6054Z" fill="#FF6853"/>
<path d="M26.1497 12.5264C26.5161 12.1843 27.3013 11.7896 27.5369 11.2106C27.9819 10.0264 28.7933 9.97376 29.7879 10.0001C30.8087 10.0264 31.8557 9.76324 32.3792 11.1843C32.5886 11.7369 33.6356 12.3948 34.1852 12.2896C35.7034 12.0264 36.096 13.0527 36.6456 14.0001C37.1691 14.8685 37.4309 15.579 36.6718 16.5527C36.3054 17.0001 36.3315 18.2369 36.698 18.658C37.745 19.8948 36.855 20.7106 36.3839 21.6317C35.9128 22.5527 35.3893 23.158 34.1591 22.8948C33.6356 22.7896 32.5886 23.4738 32.3792 24.0264C31.8819 25.3159 30.9396 25.2369 29.945 25.2369C28.9503 25.2632 28.0604 25.2632 27.5369 24.0264C27.3013 23.4738 26.2544 22.8948 25.6262 22.9738C24.3698 23.1053 23.951 22.3685 23.4799 21.5527C22.9826 20.658 22.2235 19.8948 23.2181 18.7106C23.5846 18.2632 23.6369 17.0001 23.2705 16.579C22.302 15.4474 22.9564 14.658 23.4537 13.7369C23.951 12.8159 24.4483 11.9474 26.1497 12.5264ZM30.7826 23.9211C31.594 21.9738 32.9027 21.2106 34.9705 21.4474C35.2322 20.9474 35.5201 20.4211 35.7819 19.9211C34.5255 18.5264 34.4993 16.9738 35.7034 15.079C35.4416 14.6317 35.1537 14.1843 34.8658 13.7369C33.0336 14.1053 31.6201 13.2896 30.704 11.3685C30.1805 11.3685 29.6309 11.3685 29.1074 11.3685C28.3221 13.2369 26.9349 14.0527 24.9456 13.7632C24.6839 14.2106 24.4221 14.6843 24.1342 15.158C24.2913 15.158 24.4745 15.158 24.6315 15.158C24.7101 16.4474 25.2597 18.0527 24.7101 19.0001C24.0034 20.2369 24.4745 20.7369 25.0242 21.5001C26.8826 21.158 28.2436 21.9474 29.1597 23.8948C29.6832 23.9211 30.1805 23.9211 30.7826 23.9211Z" fill="#FF6853"/>
<path d="M42.9275 34.658C44.498 34.7106 46.0946 35.5264 47.1416 37.3159C48.1624 39.1053 47.9268 40.8685 47.0369 42.6843C46.304 44.1843 45.7282 45.7895 45.3094 47.4211C44.9168 48.9738 44.0268 49.9738 42.5611 50.0001C41.0953 50.0264 39.8913 49.079 39.7866 47.5001C39.6557 45.6053 38.949 44.0264 37.9543 42.4474C35.8342 39.0527 38.4255 34.7106 42.9275 34.658ZM42.9537 45.4211C43.6604 45.2895 44.0007 45.3422 44.053 45.2106C44.8382 43.7632 45.7282 42.3422 46.3302 40.8159C46.9322 39.3159 46.1208 37.579 44.7074 36.658C43.2416 35.7106 41.4094 35.7895 40.0483 36.8159C38.7134 37.8422 38.1376 39.6053 38.7919 41.1053C39.3939 42.4737 40.1268 43.7632 40.8859 45.0527C40.9906 45.2369 41.4094 45.2369 42.1423 45.4474C41.7758 43.9738 41.4879 42.8422 41.1215 41.4474C41.7235 41.3422 42.5872 41.1316 43.4248 41.079C43.6604 41.079 43.9483 41.5527 44.21 41.7895C44.053 41.7895 43.9221 41.7895 43.7651 41.7895C43.5295 42.9211 43.2678 44.0264 42.9537 45.4211ZM41.1476 46.7106C41.0168 48.1316 41.5664 48.8159 42.8228 48.6053C43.8698 48.4211 44.0792 47.658 43.8436 46.7106C42.8751 46.7106 42.0637 46.7106 41.1476 46.7106Z" fill="#FF6853"/>
<path d="M19.8939 22.921C18.847 22.2105 18.2188 21.7894 17.4335 21.2368C15.1825 24.5526 14.3188 28.1579 14.8161 32.0789C14.8946 32.6315 15.1302 33.1842 15.0778 33.7105C15.0517 34.1052 14.7114 34.4737 14.2926 34.7631C12.5651 29.6052 13.455 24.9473 16.2557 20.5789C16.2295 20.4737 16.2295 20.3421 16.151 20.2631C14.0832 18.3421 14.0832 18.3421 16.753 17.4473C20.4698 16.1842 20.4698 16.1842 20.2604 20.1315C20.2342 20.921 20.0772 21.7105 19.8939 22.921ZM18.8993 20.6315C18.8993 19.5789 18.8993 18.9473 18.8993 18.1579C18.1664 18.3947 17.5644 18.6052 16.7007 18.8947C17.5121 19.5263 18.0356 19.9473 18.8993 20.6315Z" fill="#FF6853"/>
<path d="M46.3825 27.8421C49.5758 28.2368 49.602 28.2368 47.796 30.9473C47.2463 31.7631 46.6705 32.5526 45.8329 33.7631C44.655 31.9736 43.6342 30.4473 42.6919 28.8684C42.6134 28.7631 43.0584 28.1315 43.3463 28.0526C43.7913 27.8947 44.3148 28.0263 44.9953 28.0263C44.498 23.9736 42.6919 20.8158 39.7342 18.2894C39.106 17.7631 38.6349 17.3158 39.7342 16.6052C43.5033 19.421 45.6758 23.2368 46.3825 27.8421ZM45.8591 31.4473C46.3825 30.6315 46.7228 30.0789 47.1154 29.4473C46.147 29.4473 45.4141 29.4473 44.5242 29.4473C44.9953 30.1579 45.3617 30.6842 45.8591 31.4473Z" fill="#FF6853"/>
<path d="M36.6456 45.5527C34.5779 45.9211 32.5624 46.4474 30.4946 46.6053C29.2644 46.6843 28.5577 46.9474 28.3745 48.2369C28.3222 48.6316 28.0342 48.9738 27.6678 49.6843C26.3329 48.1316 25.1812 46.8159 24.1342 45.4474C23.9772 45.2632 24.1866 44.4737 24.396 44.3948C26.0188 43.7895 27.694 43.2895 29.6832 42.658C29.5785 43.7369 29.5 44.4211 29.3691 45.579C31.3846 45.158 33.3477 44.8422 35.2322 44.3422C36.0436 44.1316 36.6195 43.9474 36.6456 45.5527ZM25.6262 45.3422C26.2805 46.0527 26.6993 46.5264 27.3014 47.1843C27.5631 46.1053 27.7463 45.4474 27.9557 44.5527C27.1443 44.8422 26.5423 45.0264 25.6262 45.3422Z" fill="#FF6853"/>
<path d="M12.9315 39.3684C14.9732 39.3684 17.0148 39.3684 19.1087 39.3684C19.4752 40.2105 19.3966 40.6842 18.2973 40.6842C16.753 40.6579 15.2087 40.7368 13.6644 40.6316C13.2718 40.6053 12.9054 40.1316 12.5128 39.8684C12.6698 39.6842 12.8007 39.5263 12.9315 39.3684Z" fill="#FF6853"/>
<path d="M12.5128 43.5527C12.8269 43.2632 13.1409 42.7369 13.4812 42.7106C15.1302 42.6316 16.8054 42.6316 18.4544 42.7106C18.7946 42.7369 19.1349 43.2369 19.4752 43.5001C19.3967 43.6316 19.292 43.7895 19.2134 43.9211C17.1195 43.9211 15.0517 43.9211 12.9577 43.9211C12.8007 43.7895 12.6698 43.6579 12.5128 43.5527Z" fill="#FF6853"/>
<path d="M16.753 46.0791C19.2134 45.9212 19.2134 45.9212 19.1087 47.2106C16.7792 47.4738 16.7792 47.4738 16.753 46.0791Z" fill="#FF6853"/>
<path d="M29.945 14.2896C31.751 14.2896 33.1906 15.7106 33.2429 17.5264C33.2691 19.3422 31.7248 20.9474 29.9188 20.9211C28.1127 20.8948 26.5685 19.3159 26.6208 17.4738C26.6731 15.6843 28.1127 14.2896 29.945 14.2896ZM31.9342 17.4738C31.6987 16.4474 31.1752 15.6317 29.8926 15.658C28.7148 15.6843 28.0342 16.3685 27.9819 17.5001C27.9295 18.7369 28.6886 19.5001 29.8926 19.5527C31.0705 19.579 31.751 18.8159 31.9342 17.4738Z" fill="#FF6853"/>
</g>
<defs>
<clipPath id="clip0_53_9">
<rect width="39" height="40" fill="white" transform="translate(10 10)"/>
</clipPath>
</defs>
</svg>
