<svg width="60" height="60" viewBox="0 0 60 60" fill="none" xmlns="http://www.w3.org/2000/svg">
<rect opacity="0.1" width="60" height="60" rx="4" fill="#75ACFF"/>
<g clip-path="url(#clip0_53_10)">
<path d="M32.5015 10C32.5719 11.513 32.9947 12.8842 34.7093 13.0024C35.5784 13.0733 36.4944 12.6005 37.5279 12.3404C40.3699 14.5626 40.6988 15.0827 40.3464 16.9976C45.2319 17.6596 46.2184 23.617 42.8127 26.974C44.1045 27.305 45.3024 27.8723 46.4533 27.8251C47.5572 27.7778 48.6142 27.0686 49.9765 26.5485C49.9765 29.9054 50.0235 32.8369 49.9295 35.7447C49.906 36.1466 49.3188 36.643 48.8961 36.8794C45.7487 38.5106 42.5778 40.0709 39.4539 41.7021C38.9606 41.9622 38.6318 42.5295 38.256 42.9551C37.3635 43.948 36.4709 44.9882 35.5549 45.9575C34.4744 47.0922 33.347 48.2033 32.2196 49.3144C31.9612 49.5745 31.6324 50.0236 31.421 49.9764C29.6124 49.6454 27.4985 49.6927 26.0658 48.7234C23.9284 47.2813 22.2842 45.1064 20.4286 43.2151C20.1468 42.9314 19.9824 42.5296 19.7475 42.1749C19.1838 41.3475 18.5731 40.6383 17.3752 41.0165C16.9524 41.1584 16.4122 41.1348 15.9894 40.9929C13.9695 40.331 11.973 39.5981 9.9765 38.8889C9.9765 34.4917 9.9765 30.0946 9.9765 25.6738C11.5972 25.1773 12.9125 25.9102 14.1808 26.7612C15.1439 27.4232 16.0364 27.4941 17.0229 26.7849C13.852 23.6643 14.5567 17.565 19.6535 16.9504C18.6905 14.208 21.6265 13.8298 22.3781 12.3404C23.4821 12.6005 24.3981 13.0733 25.2672 13.0024C26.9818 12.8605 27.4281 11.513 27.475 10C29.1662 10 30.8338 10 32.5015 10ZM48.7082 28.3452C48.0505 28.6525 47.6042 28.8652 47.1579 29.1017C44.4333 30.5201 41.6618 31.844 39.0311 33.4279C37.1286 34.5863 35.32 34.9173 33.3 33.9716C30.4815 32.6241 28.2971 34.2553 26.0423 35.5319C25.7604 35.6974 25.8074 36.4066 25.6899 36.8558C26.1127 36.9031 26.5825 37.1158 26.9348 36.9976C27.522 36.8085 28.0153 36.383 28.5555 36.0757C30.3406 35.0355 31.2331 35.1064 32.7598 36.4775C34.2161 37.7541 35.6019 39.1017 37.0816 40.331C37.4574 40.6383 38.256 40.7565 38.6553 40.5674C41.7557 39.1017 44.8092 37.5414 47.8626 35.9574C48.2149 35.7683 48.6142 35.2955 48.6377 34.9645C48.7551 32.8132 48.7082 30.6856 48.7082 28.3452ZM20.0293 40.4965C20.3817 40.1655 20.64 39.9054 20.8984 39.669C22.5426 38.1087 23.4821 38.2033 24.7269 40.0946C24.8914 40.331 25.1732 40.4728 25.3846 40.6856C26.3711 41.6076 27.3576 42.5532 28.3441 43.4752C29.495 44.5626 30.5989 45.6738 31.7968 46.6903C32.0317 46.8794 32.5954 46.6903 33.0182 46.6667C32.8773 46.3121 32.8538 45.8392 32.6189 45.6028C31.6794 44.7281 30.6694 43.9007 29.589 43.0024C29.9178 42.6478 30.1761 42.3877 30.458 42.0804C31.5385 42.9787 32.5015 43.8534 33.5584 44.6099C33.8872 44.8463 34.451 44.7281 34.9207 44.7518C34.7563 44.3499 34.7093 43.8298 34.4275 43.5697C33.5114 42.6714 32.5015 41.8676 31.5385 41.0402C31.5854 40.8747 31.6324 40.6856 31.6794 40.5201C32.1257 40.5674 32.6894 40.4728 33.0182 40.6856C33.7463 41.1584 34.3335 41.8676 35.0851 42.3404C35.5784 42.6478 36.2126 42.6714 36.7998 42.8132C36.5649 42.2931 36.4474 41.6785 36.0951 41.3002C35.32 40.4728 34.4275 39.74 33.5584 38.9835C30.7868 36.5248 30.9513 35.8392 27.5455 38.156C26.3946 38.9362 25.0323 38.5343 24.4451 37.4704C23.8109 36.3121 24.2102 35.0118 25.4786 34.279C26.3711 33.7825 27.2871 33.3333 28.3441 32.8132C27.9918 32.6241 27.8274 32.4823 27.616 32.435C25.0793 31.7021 22.6835 32.6478 20.2642 33.1678C20.0059 33.2151 19.7005 33.617 19.6066 33.9243C19.0663 35.721 18.5731 37.5177 18.0564 39.3381C18.7845 39.7163 19.3482 40.0709 20.0293 40.4965ZM36.283 33.2624C36.8937 30.1182 36.4005 29.2908 33.5349 28.5816C33.2296 28.5106 32.9008 28.487 32.6424 28.3452C32.1726 28.1087 31.374 27.8014 31.374 27.5414C31.3975 26.8558 31.5854 26.0047 32.0317 25.5083C33.347 24.0662 33.6759 21.4657 32.5484 19.8582C31.8203 18.8416 30.7633 18.1324 29.6124 18.5579C28.6494 18.9125 27.4281 19.6927 27.0992 20.5674C26.4885 22.2931 26.4651 24.1608 28.0857 25.6501C28.5085 26.0284 28.6259 26.9267 28.6259 27.565C28.6259 27.8251 27.9213 28.156 27.4985 28.2979C26.7234 28.5816 25.8309 28.6052 25.1027 28.9835C24.4451 29.3381 23.9518 30 23.3881 30.5437C23.5056 30.6619 23.5995 30.8038 23.717 30.922C28.1562 30.3546 32.0317 32.8369 36.283 33.2624ZM44.7152 28.9125C43.8696 28.6525 43.4234 28.5816 43.0241 28.3924C42.5308 28.1324 41.6853 27.8014 41.6853 27.4941C41.6853 26.8085 41.9436 25.9811 42.4134 25.4846C43.7287 24.0426 43.9636 21.2293 42.7422 19.6927C41.5443 18.2033 39.3834 18.1087 38.0446 19.4563C36.8232 20.7329 36.7528 23.8061 37.9272 25.13C39.6888 27.1395 39.5478 27.7069 37.1521 28.5579C37.0816 28.5816 37.0346 28.6998 37.1286 28.5816C37.4339 29.9054 37.6923 31.1111 37.9976 32.435C40.1585 31.3239 42.249 30.2128 44.7152 28.9125ZM23.1532 28.7234C20.4052 27.7069 20.2877 27.1868 22.0728 25.1064C23.2472 23.7352 23.1532 20.7329 21.8849 19.4326C20.5931 18.1087 18.5026 18.1797 17.3047 19.5508C16.0599 20.9693 16.2243 23.9716 17.5161 25.3428C17.9389 25.792 18.3617 26.4303 18.3617 26.9976C18.3617 27.5414 17.8215 28.0615 17.4926 28.6525C18.3852 29.6454 20.4991 29.5508 20.4286 31.5603C22.8949 32.0331 22.0728 29.6217 23.1532 28.7234ZM37.6453 27.234C37.6923 27.0922 37.7393 26.9504 37.7862 26.8085C35.5784 24.9882 35.5784 22.6478 36.0481 20.1891C36.1186 19.8109 35.9542 19.2908 35.7193 18.9362C33.0652 14.8936 26.8643 14.8936 24.2337 18.9598C23.9988 19.3144 23.8109 19.8345 23.8814 20.2128C24.4451 22.695 24.3746 24.9882 22.1668 26.8322C23.9988 27.7541 25.643 27.8014 27.3341 26.8794C25.0088 23.8061 24.8679 20.2837 26.9348 18.3688C28.6025 16.8085 31.2096 16.7849 32.9008 18.2979C35.1086 20.26 35.0147 23.6407 32.4075 27.234C34.3335 27.234 35.9777 27.234 37.6453 27.234ZM22.8009 13.8061C20.1703 16.0757 20.1938 16.8558 22.9184 18.3688C27.0288 13.0496 33.488 13.5934 37.1286 18.3215C39.8062 16.9031 39.8297 15.8629 37.1756 13.8534C34.6623 15.2009 32.2431 14.208 31.3271 11.3712C30.4345 11.3712 29.5185 11.3712 28.6494 11.3712C27.8978 14.1844 25.3141 15.2482 22.8009 13.8061ZM11.2683 26.5957C11.2683 30.2364 11.3388 33.357 11.2214 36.4775C11.1744 37.8014 11.5972 38.4161 12.842 38.6052C13.1944 38.6525 13.5232 38.818 14.0634 38.9598C14.7915 36.0047 15.5431 33.0733 16.2243 30.1655C16.2713 29.9291 16.1303 29.4799 15.9424 29.3617C14.5332 28.5106 13.0534 27.6596 11.2683 26.5957ZM16.6001 39.8582C17.4457 36.9031 18.2443 34.0662 19.0663 31.1584C18.5261 30.8747 18.0798 30.6383 17.5396 30.3546C16.7645 33.4279 16.0364 36.3593 15.2848 39.3853C15.7311 39.5508 16.1069 39.669 16.6001 39.8582ZM26.6764 43.4988C25.9953 44.279 25.4551 44.87 25.0088 45.5083C24.9383 45.6028 25.3376 46.0047 25.502 46.2648C26.1127 45.6974 26.7469 45.1537 27.3106 44.5626C27.3576 44.4681 27.0053 44.0189 26.6764 43.4988ZM20.6635 41.6548C21.2037 42.0331 21.65 42.435 21.7205 42.3641C22.3312 41.8676 22.8949 41.2766 23.4351 40.6856C23.4821 40.6383 22.9184 39.9764 22.8949 39.9764C22.1902 40.4492 21.5326 40.9693 20.6635 41.6548ZM29.7064 46.4066C29.0722 46.0993 28.6259 45.7683 28.532 45.8392C27.9213 46.3593 27.4046 46.9504 26.8878 47.565C26.8643 47.5887 27.475 48.2033 27.522 48.1797C28.2032 47.7069 28.8373 47.1395 29.7064 46.4066ZM25.7134 42.6241C25.2202 42.2695 24.7974 41.8676 24.7504 41.9149C24.1397 42.4823 23.576 43.0969 22.9888 43.7116C23.2237 43.9007 23.623 44.3262 23.6935 44.279C24.3511 43.8061 24.9383 43.2861 25.7134 42.6241Z" fill="#75ACFF"/>
</g>
<defs>
<clipPath id="clip0_53_10">
<rect width="40" height="40" fill="white" transform="translate(10 10)"/>
</clipPath>
</defs>
</svg>
