<svg width="60" height="60" viewBox="0 0 60 60" fill="none" xmlns="http://www.w3.org/2000/svg">
<rect opacity="0.1" width="60" height="60" rx="4" fill="#51D5DD"/>
<g clip-path="url(#clip0_53_12)">
<path d="M28.8629 44.7606C20.602 43.518 15.9532 38.8832 14.7492 30.6213C13.7124 30.6213 12.6756 30.6884 11.6388 30.5877C11.1037 30.5205 10.6355 30.1175 10.1338 29.8824C10.602 29.6809 11.0702 29.345 11.5385 29.3114C12.5753 29.2107 13.6121 29.2779 14.8161 29.2779C14.9498 28.4718 15.0167 27.7665 15.184 27.0276C16.3545 20.9823 21.3712 16.2132 27.4582 15.4072C28.6957 15.2392 29.0301 14.769 28.9298 13.6607C28.8629 12.8547 28.8629 12.0486 28.9298 11.2426C28.9632 10.8732 29.2977 10.5037 29.4649 10.1343C29.699 10.4701 30.2341 10.8396 30.1672 11.0747C29.398 14.6011 31.4381 15.2392 34.2809 16.0789C39.5318 17.6574 42.6756 21.5533 43.8796 26.9605C44.0468 27.6322 44.1472 28.3039 44.3144 29.2107C45.786 29.2107 47.291 29.1771 48.7626 29.2443C49.097 29.2443 49.4314 29.6473 49.7993 29.8488C49.4649 30.0839 49.1304 30.4869 48.796 30.4869C47.3579 30.5541 45.9197 30.5205 44.3478 30.5205C43.1104 38.7153 38.495 43.4508 30.1672 44.6935C30.1672 46.0369 30.2341 47.4139 30.1338 48.7909C30.1003 49.1939 29.6656 49.5633 29.4314 49.9328C29.2642 49.5633 28.9298 49.1939 28.8963 48.7909C28.8294 47.481 28.8629 46.1376 28.8629 44.7606ZM42.8763 29.8488C42.8763 22.4936 36.8562 16.4819 29.5318 16.5155C22.2408 16.5155 16.1873 22.628 16.1873 29.916C16.1873 37.2376 22.2408 43.2493 29.5652 43.2493C36.8896 43.2157 42.8428 37.204 42.8763 29.8488Z" fill="#51D5DD"/>
<path d="M14.6823 14.6683C14.6823 16.0789 14.6154 17.288 14.6823 18.497C14.7492 19.6725 14.281 20.2435 13.077 20.1427C12.5753 20.1091 12.0402 20.1091 11.5051 20.1427C10.4348 20.2435 9.96661 19.7397 10.0001 18.6314C10.0335 16.2468 10.0335 13.8623 10.0001 11.5113C9.96661 10.3358 10.5017 9.99996 11.572 9.99996C13.8796 10.0335 16.1873 10.0671 18.495 9.99996C19.699 9.96638 20.2342 10.3694 20.1004 11.6121C20.0335 12.183 20.0669 12.7875 20.1004 13.3585C20.1338 14.2989 19.699 14.7355 18.7291 14.7019C17.4582 14.6347 16.2208 14.6683 14.6823 14.6683ZM11.4382 11.3434C11.4382 13.963 11.4382 16.314 11.4382 18.7993C12.1071 18.7657 12.6422 18.7321 13.3111 18.6985C13.3111 17.2544 13.3445 15.911 13.3111 14.6011C13.2776 13.6272 13.679 13.2577 14.6489 13.2913C16.0201 13.3249 17.3579 13.2913 18.7291 13.2913C18.8295 13.1234 18.9298 12.9555 19.0636 12.7875C18.6957 12.3173 18.3613 11.4105 17.9599 11.4105C15.8194 11.2762 13.7124 11.3434 11.4382 11.3434Z" fill="#51D5DD"/>
<path d="M45.3177 14.6683C43.8796 14.6683 42.6756 14.6011 41.505 14.6683C40.2676 14.7355 39.7993 14.1981 39.9331 13.0226C39.9331 12.9219 39.9331 12.7875 39.9331 12.6868C39.8997 9.99997 39.8997 9.99997 42.5084 9.99997C44.5151 9.99997 46.5552 10.0336 48.5619 9.99997C49.5987 9.96639 50.0334 10.3694 50 11.4441C49.9666 13.8623 49.9666 16.314 50 18.7321C50 19.8069 49.5318 20.2099 48.5284 20.1427C48.2274 20.1091 47.9599 20.1427 47.6589 20.1427C45.3512 20.1427 45.3512 20.1427 45.3177 17.8589C45.3177 16.8849 45.3177 15.911 45.3177 14.6683ZM48.5284 18.7321C48.5284 16.1797 48.5284 13.8623 48.5284 11.3434C46.5217 11.3434 44.6488 11.4106 42.7425 11.3098C41.2709 11.2426 40.903 11.8136 41.3712 13.2913C42.6087 13.2913 43.8796 13.3585 45.1171 13.2913C46.2207 13.2242 46.689 13.6272 46.6221 14.7691C46.5552 16.0789 46.6221 17.3887 46.6221 18.7321C47.3913 18.7321 47.893 18.7321 48.5284 18.7321Z" fill="#51D5DD"/>
<path d="M14.6823 45.3317C16.0535 45.3317 17.2241 45.3988 18.3612 45.2981C19.7659 45.1637 20.2676 45.8019 20.1004 47.1117C20.1004 47.2124 20.1004 47.3468 20.1004 47.4475C20.1004 49.9328 20.1004 49.9328 17.6923 49.9328C15.6188 49.9328 13.5452 49.8993 11.4716 49.9328C10.4348 49.9664 10.0335 49.4962 10.0335 48.4887C10.0669 46.1041 10.0669 43.7196 10.0335 41.3686C10 40.2603 10.4014 39.7229 11.5385 39.8237C11.9398 39.8573 12.3412 39.8573 12.7425 39.8237C14.2475 39.6558 14.883 40.2267 14.7157 41.7716C14.582 42.9135 14.6823 43.9883 14.6823 45.3317ZM11.4716 41.3014C11.4716 43.8539 11.4716 46.1713 11.4716 48.6566C13.5117 48.6566 15.3846 48.5894 17.291 48.6902C18.8629 48.7574 19.0301 48.0521 18.5953 46.7087C17.3579 46.7087 16.1539 46.6415 14.9499 46.7423C13.6121 46.843 13.2107 46.2721 13.3111 45.0294C13.4114 43.8203 13.3445 42.6113 13.3445 41.335C12.6422 41.3014 12.0736 41.3014 11.4716 41.3014Z" fill="#51D5DD"/>
<path d="M45.3177 45.3315C45.3177 43.8538 45.3512 42.6447 45.3177 41.4356C45.2843 40.3609 45.6522 39.79 46.7893 39.8571C47.0903 39.8907 47.3579 39.8571 47.6589 39.8571C49.9666 39.8571 49.9666 39.8571 50 42.1409C50 44.2232 49.9666 46.3055 50 48.3878C50.0335 49.5968 49.5318 50.0335 48.3612 49.9999C46.0535 49.9327 43.7458 49.9327 41.4381 49.9999C40.3345 50.0335 39.7993 49.664 39.8997 48.5221C39.9331 48.1191 39.9331 47.7161 39.8997 47.313C39.699 45.8017 40.301 45.1972 41.8395 45.3315C42.9097 45.4323 44.0134 45.3315 45.3177 45.3315ZM41.4047 46.7085C41.2375 46.8764 41.1037 47.0444 40.9365 47.2123C41.3044 47.7161 41.6388 48.5893 42.0067 48.6229C44.1806 48.7572 46.3211 48.69 48.495 48.69C48.495 46.0704 48.495 43.7194 48.495 41.3349C47.8261 41.3349 47.291 41.3349 46.6221 41.3349C46.6221 42.7455 46.5886 44.0889 46.6221 45.3987C46.6555 46.3727 46.2876 46.7757 45.3177 46.7421C44.0468 46.6749 42.709 46.7085 41.4047 46.7085Z" fill="#51D5DD"/>
<path d="M35.4181 35.4576C34.9498 38.1444 34.7157 38.3459 32.0067 38.3459C30.4014 38.3459 28.796 38.3459 27.1572 38.3459C24.6154 38.3459 24.3144 38.0772 23.8796 35.6255C23.7793 35.5583 23.6789 35.4576 23.5786 35.4576C22.3411 35.1889 20.6355 35.8942 20.1003 34.2485C19.5318 32.4013 19.5987 30.3862 20.9365 28.8077C21.7726 27.8001 22.107 26.8933 22.0067 25.5835C21.8395 23.5348 22.8094 22.1578 24.4147 21.654C26.1539 21.1503 27.5585 21.7884 28.6622 23.7027C29.2308 24.7103 29.7325 24.8111 30.3345 23.7699C31.4716 21.7884 32.9097 21.1167 34.7157 21.6876C36.3545 22.225 37.3913 23.8035 37.0903 25.8186C36.9231 26.9605 37.1906 27.6994 37.9599 28.539C39.3311 29.9832 39.6321 31.864 39.2642 33.7111C39.1304 34.3493 38.2609 34.9874 37.5585 35.2896C36.9565 35.5919 36.1204 35.424 35.4181 35.4576ZM27.0234 31.5281C25.4515 32.7036 25.0836 34.2821 25.2508 35.9949C25.2843 36.3644 25.9197 36.9353 26.2876 36.9689C28.4615 37.0697 30.6355 37.0361 32.8094 36.9689C33.1438 36.9689 33.7124 36.4315 33.7458 36.0957C33.9465 34.3157 33.6789 32.6364 31.8729 31.5281C30.3345 32.8379 28.6622 32.5692 27.0234 31.5281ZM36.689 28.539C36.4883 28.6062 36.2876 28.7069 36.087 28.7741C35.2843 29.0092 34.4482 29.2443 33.6455 29.4458C32.8094 29.6473 32.5753 30.0168 33.2107 30.7556C33.7793 31.4609 34.5151 32.1662 34.7492 33.0059C35.1171 34.45 36.087 34.1813 37.0234 34.1477C38.2943 34.0806 38.0602 33.0059 37.9264 32.3006C37.6254 30.9907 37.1238 29.7817 36.689 28.539ZM31.7391 28.3375C31.7057 26.6918 30.9365 25.785 29.5987 25.785C28.194 25.785 27.3579 26.759 27.3913 28.4718C27.4248 30.0504 28.2609 31.0579 29.5652 31.0579C30.903 31.0579 31.7391 30.0168 31.7391 28.3375ZM23.6121 34.45C23.6789 34.2485 23.7458 34.047 23.8127 33.8455C24.4482 32.8379 25.1505 31.864 25.7525 30.8564C25.9532 30.5205 25.9866 30.0839 26.1204 29.6809C25.0167 29.3786 23.8796 28.7741 22.7759 28.8077C21.7726 28.8413 20.7024 31.8304 21.3044 33.2074C21.5719 33.8455 22.8094 34.047 23.6121 34.45ZM23.2776 25.4828C23.2776 25.6507 23.2107 25.8858 23.311 25.9865C23.8796 26.6918 24.4816 27.3635 25.0502 28.0688C25.4515 27.565 25.8863 27.0949 26.2542 26.5911C26.4883 26.2888 26.689 25.9194 26.9231 25.5835C27.7258 24.5088 27.5251 23.602 26.3211 23.031C24.7157 22.2586 23.2442 23.4341 23.2776 25.4828ZM33.5452 28.4718C34.3144 27.8001 35.3512 27.3299 35.5519 26.6582C35.786 25.7179 35.6522 24.4416 35.1505 23.602C34.5151 22.5273 33.2776 22.5273 32.2743 23.3333C31.3378 24.0722 31.3044 24.8446 32.2408 25.785C32.7759 26.2888 32.9432 27.162 33.5452 28.4718Z" fill="#51D5DD"/>
</g>
<defs>
<clipPath id="clip0_53_12">
<rect width="40" height="40" fill="white" transform="translate(10 10)"/>
</clipPath>
</defs>
</svg>
